<svg width="698" height="711" viewBox="0 0 698 711" fill="none" xmlns="http://www.w3.org/2000/svg">
<mask id="mask0_0_153" style="mask-type:luminance" maskUnits="userSpaceOnUse" x="170" y="0" width="400" height="400">
<circle cx="370" cy="200" r="200" fill="white"/>
</mask>
<g mask="url(#mask0_0_153)">
<path d="M270.018 -207.501L270.725 -208.207L270.019 -208.915L269.311 -208.208L270.018 -207.501ZM270.724 -206.793L271.432 -207.5L270.724 -206.793ZM268.603 -206.087L267.896 -206.795L267.188 -206.088L267.895 -205.381L268.603 -206.087ZM269.309 -205.38L270.017 -206.086L270.017 -206.086L269.309 -205.38ZM793.275 319.293L793.983 318.587L793.275 319.293ZM793.982 320.001L793.274 320.708L793.981 321.415L794.689 320.709L793.982 320.001ZM795.397 318.588L796.104 319.295L796.811 318.589L796.105 317.881L795.397 318.588ZM794.69 317.88L793.983 318.587L794.69 317.88ZM253.047 -190.53L253.755 -191.237L253.048 -191.944L252.34 -191.238L253.047 -190.53ZM253.754 -189.822L254.461 -190.529L254.461 -190.529L253.754 -189.822ZM251.632 -189.117L250.925 -189.824L250.218 -189.118L250.924 -188.41L251.632 -189.117ZM252.339 -188.409L251.631 -187.703L251.631 -187.703L252.339 -188.409ZM776.305 336.264L775.597 336.971L776.305 336.264ZM777.011 336.972L776.304 337.678L777.01 338.386L777.718 337.679L777.011 336.972ZM778.426 335.558L779.133 336.266L779.841 335.559L779.134 334.852L778.426 335.558ZM777.72 334.851L778.427 334.144L777.72 334.851ZM236.783 -172.852L236.076 -172.145L236.076 -172.145L236.783 -172.852ZM236.077 -173.559L236.784 -174.266L236.078 -174.974L235.37 -174.267L236.077 -173.559ZM760.749 351.821L761.457 351.115L760.749 351.821ZM761.456 352.529L762.163 353.236L762.87 352.53L762.164 351.822L761.456 352.529ZM760.041 353.942L759.333 354.649L760.04 355.356L760.747 354.65L760.041 353.942ZM759.334 353.235L760.042 352.528L759.334 353.235ZM235.368 -171.439L234.66 -170.732L234.66 -170.732L235.368 -171.439ZM234.661 -172.146L233.955 -172.854L233.247 -172.147L233.954 -171.44L234.661 -172.146ZM219.106 -156.589L219.814 -157.296L219.107 -158.003L218.399 -157.297L219.106 -156.589ZM219.813 -155.881L220.52 -156.588L220.52 -156.588L219.813 -155.881ZM217.691 -155.176L216.984 -155.883L216.277 -155.177L216.983 -154.469L217.691 -155.176ZM218.397 -154.468L219.105 -155.175L219.105 -155.175L218.397 -154.468ZM742.364 370.205L741.656 370.912L742.364 370.205ZM743.07 370.913L742.363 371.619L743.069 372.327L743.777 371.62L743.07 370.913ZM744.485 369.499L745.192 370.207L745.9 369.5L745.193 368.793L744.485 369.499ZM743.779 368.792L743.071 369.499L743.779 368.792ZM202.842 -138.911L203.55 -139.617L203.55 -139.617L202.842 -138.911ZM202.135 -139.618L202.843 -140.325L202.136 -141.033L201.429 -140.326L202.135 -139.618ZM726.808 385.762L726.101 386.469L726.808 385.762ZM727.515 386.47L728.221 387.178L728.929 386.471L728.222 385.763L727.515 386.47ZM726.1 387.883L725.392 388.59L726.099 389.297L726.806 388.591L726.1 387.883ZM725.393 387.176L724.685 387.882L725.393 387.176ZM201.427 -137.498L202.134 -138.204L202.134 -138.204L201.427 -137.498ZM200.72 -138.205L200.014 -138.913L199.306 -138.206L200.013 -137.498L200.72 -138.205ZM185.165 -122.648L185.872 -123.354L185.166 -124.062L184.458 -123.355L185.165 -122.648ZM185.871 -121.94L186.579 -122.647L186.579 -122.647L185.871 -121.94ZM183.75 -121.235L183.043 -121.942L182.335 -121.235L183.042 -120.528L183.75 -121.235ZM184.456 -120.527L185.164 -121.234L185.164 -121.234L184.456 -120.527ZM708.422 404.146L707.715 404.853L708.422 404.146ZM709.129 404.854L708.421 405.56L709.128 406.268L709.836 405.561L709.129 404.854ZM710.544 403.441L711.251 404.148L711.958 403.442L711.252 402.734L710.544 403.441ZM709.838 402.733L709.13 403.44L709.838 402.733ZM168.901 -104.97L169.609 -105.676L169.609 -105.676L168.901 -104.97ZM168.194 -105.677L168.902 -106.384L168.195 -107.091L167.488 -106.385L168.194 -105.677ZM692.867 419.704L692.159 420.41L692.867 419.704ZM693.574 420.411L694.28 421.119L694.988 420.412L694.281 419.705L693.574 420.411ZM692.159 421.824L691.451 422.531L692.158 423.239L692.865 422.532L692.159 421.824ZM691.452 421.117L690.744 421.823L691.452 421.117ZM167.486 -103.556L168.193 -104.263L168.193 -104.263L167.486 -103.556ZM166.779 -104.264L166.072 -104.972L165.365 -104.265L166.072 -103.557L166.779 -104.264ZM151.224 -88.7067L151.931 -89.4133L151.225 -90.1209L150.517 -89.4143L151.224 -88.7067ZM151.93 -87.9991L152.638 -88.7057L152.638 -88.7057L151.93 -87.9991ZM149.809 -87.2934L149.102 -88.001L148.394 -87.2944L149.101 -86.5868L149.809 -87.2934ZM150.515 -86.5858L151.223 -87.2925L151.223 -87.2925L150.515 -86.5858ZM674.481 438.087L673.774 438.794L674.481 438.087ZM675.188 438.795L674.48 439.502L675.187 440.209L675.895 439.503L675.188 438.795ZM676.603 437.382L677.31 438.089L678.017 437.383L677.311 436.675L676.603 437.382ZM675.896 436.674L675.189 437.381L675.896 436.674ZM134.96 -71.0285L135.667 -71.7352L135.667 -71.7352L134.96 -71.0285ZM134.253 -71.7361L134.961 -72.4428L134.254 -73.1503L133.547 -72.4437L134.253 -71.7361ZM658.926 453.645L658.218 454.351L658.926 453.645ZM659.633 454.352L660.339 455.06L661.047 454.353L660.34 453.646L659.633 454.352ZM658.217 455.766L657.51 456.472L658.216 457.18L658.924 456.473L658.217 455.766ZM657.511 455.058L656.803 455.765L657.511 455.058ZM133.545 -69.6153L134.252 -70.3219L134.252 -70.3219L133.545 -69.6153ZM132.838 -70.3229L132.131 -71.0304L131.424 -70.3238L132.13 -69.6162L132.838 -70.3229ZM117.283 -54.7656L117.99 -55.4722L117.284 -56.1798L116.576 -55.4731L117.283 -54.7656ZM117.989 -54.058L118.697 -54.7646L118.697 -54.7646L117.989 -54.058ZM115.867 -53.3523L115.161 -54.0599L114.453 -53.3532L115.16 -52.6457L115.867 -53.3523ZM116.574 -52.6447L117.282 -53.3513L117.282 -53.3513L116.574 -52.6447ZM640.54 472.029L639.833 472.735L640.54 472.029ZM641.247 472.736L640.539 473.443L641.246 474.15L641.953 473.444L641.247 472.736ZM642.662 471.323L643.369 472.03L644.076 471.324L643.37 470.616L642.662 471.323ZM641.955 470.615L641.248 471.322L641.955 470.615ZM101.019 -37.0874L101.726 -37.794L101.726 -37.794L101.019 -37.0874ZM100.312 -37.795L101.02 -38.5016L100.313 -39.2092L99.6054 -38.5026L100.312 -37.795ZM624.985 487.586L624.277 488.292L624.985 487.586ZM625.691 488.293L626.398 489.001L627.106 488.294L626.399 487.587L625.691 488.293ZM624.276 489.707L623.569 490.413L624.275 491.121L624.983 490.414L624.276 489.707ZM623.57 488.999L622.862 489.706L623.57 488.999ZM99.6035 -35.6742L100.311 -36.3808L100.311 -36.3808L99.6035 -35.6742ZM98.8969 -36.3817L98.1902 -37.0893L97.4827 -36.3827L98.1893 -35.6751L98.8969 -36.3817ZM83.3415 -20.8244L84.0491 -21.5311L83.3424 -22.2386L82.6349 -21.532L83.3415 -20.8244ZM84.0481 -20.1168L84.7557 -20.8235L84.7557 -20.8235L84.0481 -20.1168ZM81.9263 -19.4112L81.2197 -20.1188L80.5121 -19.4121L81.2187 -18.7045L81.9263 -19.4112ZM82.6329 -18.7036L83.3405 -19.4102L83.3405 -19.4102L82.6329 -18.7036ZM606.599 505.97L605.891 506.676L606.599 505.97ZM607.306 506.677L606.598 507.384L607.305 508.091L608.012 507.385L607.306 506.677ZM608.721 505.264L609.427 505.972L610.135 505.265L609.428 504.557L608.721 505.264ZM608.014 504.556L607.307 505.263L608.014 504.556ZM67.0776 -3.14629L67.7851 -3.85292L67.7851 -3.85292L67.0776 -3.14629ZM66.3709 -3.85387L67.0785 -4.5605L66.3719 -5.26808L65.6643 -4.56145L66.3709 -3.85387ZM591.044 521.527L590.336 522.234L591.044 521.527ZM591.75 522.235L592.457 522.942L593.165 522.235L592.458 521.528L591.75 522.235ZM590.335 523.648L589.628 524.354L590.334 525.062L591.042 524.355L590.335 523.648ZM589.629 522.94L588.921 523.647L589.629 522.94ZM65.6624 -1.73303L66.37 -2.43966L66.37 -2.43966L65.6624 -1.73303ZM64.9558 -2.44061L64.2491 -3.14819L63.5415 -2.44156L64.2482 -1.73398L64.9558 -2.44061ZM49.4004 13.1167L50.1079 12.4101L49.4013 11.7025L48.6937 12.4091L49.4004 13.1167ZM50.107 13.8243L50.8146 13.1176L50.8146 13.1176L50.107 13.8243ZM47.9852 14.53L47.2786 13.8224L46.571 14.529L47.2776 15.2366L47.9852 14.53ZM48.6918 15.2375L49.3994 14.5309L49.3994 14.5309L48.6918 15.2375ZM572.658 539.911L571.95 540.617L572.658 539.911ZM573.365 540.618L572.657 541.325L573.364 542.033L574.071 541.326L573.365 540.618ZM574.78 539.205L575.486 539.913L576.194 539.206L575.487 538.498L574.78 539.205ZM574.073 538.497L573.366 539.204L574.073 538.497ZM33.1364 30.7948L33.844 30.0882L33.844 30.0882L33.1364 30.7948ZM32.4298 30.0873L33.1374 29.3806L32.4307 28.673L31.7232 29.3797L32.4298 30.0873ZM557.103 555.468L556.395 556.175L557.103 555.468ZM557.809 556.176L558.516 556.883L559.223 556.177L558.517 555.469L557.809 556.176ZM556.394 557.589L555.686 558.296L556.393 559.003L557.101 558.296L556.394 557.589ZM555.687 556.881L554.98 557.588L555.687 556.881ZM31.7213 32.2081L32.4288 31.5015L32.4288 31.5015L31.7213 32.2081ZM31.0146 31.5005L30.308 30.7929L29.6004 31.4996L30.307 32.2071L31.0146 31.5005ZM15.4592 47.0578L16.1668 46.3512L15.4602 45.6436L14.7526 46.3502L15.4592 47.0578ZM16.1659 47.7654L16.8735 47.0588L16.8734 47.0588L16.1659 47.7654ZM14.0441 48.4711L13.3374 47.7635L12.6299 48.4701L13.3365 49.1777L14.0441 48.4711ZM14.7507 49.1787L15.4583 48.472L15.4583 48.472L14.7507 49.1787ZM538.717 573.852L538.009 574.559L538.717 573.852ZM539.423 574.559L538.716 575.266L539.423 575.974L540.13 575.267L539.423 574.559ZM540.839 573.146L541.545 573.854L542.253 573.147L541.546 572.44L540.839 573.146ZM540.132 572.439L539.424 573.145L540.132 572.439ZM-0.804696 64.736L-0.0971122 64.0293L-0.0971142 64.0293L-0.804696 64.736ZM-1.51133 64.0284L-0.803746 63.3217L-1.51038 62.6142L-2.21796 63.3208L-1.51133 64.0284ZM523.161 589.409L522.454 590.116L523.161 589.409ZM523.868 590.117L524.575 590.824L525.282 590.118L524.576 589.41L523.868 590.117ZM522.453 591.53L521.745 592.237L522.452 592.944L523.16 592.238L522.453 591.53ZM521.746 590.822L521.039 591.529L521.746 590.822ZM-2.21986 66.1492L-1.51228 65.4426L-1.51228 65.4426L-2.21986 66.1492ZM-2.92649 65.4416L-3.63313 64.7341L-4.34071 65.4407L-3.63408 66.1483L-2.92649 65.4416ZM-18.4819 80.9989L-17.7743 80.2923L-18.4809 79.5847L-19.1885 80.2914L-18.4819 80.9989ZM-17.7753 81.7065L-17.0677 80.9999L-17.0677 80.9999L-17.7753 81.7065ZM-19.8971 82.4122L-20.6037 81.7046L-21.3113 82.4113L-20.6046 83.1188L-19.8971 82.4122ZM-19.1904 83.1198L-18.4828 82.4132L-18.4828 82.4132L-19.1904 83.1198ZM504.776 607.793L504.068 608.5L504.776 607.793ZM505.482 608.501L504.775 609.207L505.481 609.915L506.189 609.208L505.482 608.501ZM506.897 607.087L507.604 607.795L508.312 607.088L507.605 606.381L506.897 607.087ZM506.191 606.38L505.483 607.086L506.191 606.38ZM269.31 -206.794L270.017 -206.086L271.432 -207.5L270.725 -208.207L269.31 -206.794ZM269.309 -205.38L270.724 -206.793L269.311 -208.208L267.896 -206.795L269.309 -205.38ZM270.017 -206.086L269.31 -206.794L267.895 -205.381L268.602 -204.673L270.017 -206.086ZM793.983 318.587L270.017 -206.086L268.602 -204.673L792.568 320L793.983 318.587ZM794.689 319.294L793.983 318.587L792.568 320L793.274 320.708L794.689 319.294ZM794.69 317.88L793.275 319.293L794.689 320.709L796.104 319.295L794.69 317.88ZM793.983 318.587L794.689 319.294L796.105 317.881L795.398 317.174L793.983 318.587ZM270.017 -206.086L793.983 318.587L795.398 317.174L271.432 -207.5L270.017 -206.086ZM252.34 -189.823L253.046 -189.116L254.461 -190.529L253.755 -191.237L252.34 -189.823ZM252.339 -188.409L253.754 -189.822L252.34 -191.238L250.925 -189.824L252.339 -188.409ZM253.046 -189.116L252.34 -189.823L250.924 -188.41L251.631 -187.703L253.046 -189.116ZM777.012 335.557L253.046 -189.116L251.631 -187.703L775.597 336.971L777.012 335.557ZM777.719 336.265L777.012 335.557L775.597 336.971L776.304 337.678L777.719 336.265ZM777.72 334.851L776.305 336.264L777.718 337.679L779.133 336.266L777.72 334.851ZM777.012 335.557L777.719 336.265L779.134 334.852L778.427 334.144L777.012 335.557ZM253.046 -189.116L777.012 335.557L778.427 334.144L254.461 -190.529L253.046 -189.116ZM237.491 -173.559L236.784 -174.266L235.369 -172.853L236.076 -172.145L237.491 -173.559ZM761.457 351.115L237.491 -173.559L236.076 -172.145L760.042 352.528L761.457 351.115ZM762.164 351.822L761.457 351.115L760.042 352.528L760.748 353.236L762.164 351.822ZM760.747 354.65L762.163 353.236L760.749 351.821L759.334 353.235L760.747 354.65ZM758.627 353.941L759.333 354.649L760.748 353.236L760.042 352.528L758.627 353.941ZM234.66 -170.732L758.627 353.941L760.042 352.528L236.076 -172.145L234.66 -170.732ZM233.954 -171.44L234.66 -170.732L236.076 -172.145L235.369 -172.853L233.954 -171.44ZM235.37 -174.267L233.955 -172.854L235.368 -171.439L236.783 -172.852L235.37 -174.267ZM218.398 -155.882L219.105 -155.175L220.52 -156.588L219.814 -157.296L218.398 -155.882ZM218.397 -154.468L219.813 -155.881L218.399 -157.297L216.984 -155.883L218.397 -154.468ZM219.105 -155.175L218.398 -155.882L216.983 -154.469L217.69 -153.761L219.105 -155.175ZM743.071 369.499L219.105 -155.175L217.69 -153.761L741.656 370.912L743.071 369.499ZM743.778 370.206L743.071 369.499L741.656 370.912L742.363 371.619L743.778 370.206ZM743.779 368.792L742.364 370.205L743.777 371.62L745.192 370.207L743.779 368.792ZM743.071 369.499L743.778 370.206L745.193 368.793L744.486 368.085L743.071 369.499ZM219.105 -155.175L743.071 369.499L744.486 368.085L220.52 -156.588L219.105 -155.175ZM203.55 -139.617L202.843 -140.325L201.428 -138.912L202.134 -138.204L203.55 -139.617ZM727.516 385.056L203.55 -139.617L202.134 -138.204L726.101 386.469L727.516 385.056ZM728.222 385.763L727.516 385.056L726.101 386.469L726.807 387.177L728.222 385.763ZM726.806 388.591L728.221 387.178L726.808 385.762L725.393 387.176L726.806 388.591ZM724.685 387.882L725.392 388.59L726.807 387.177L726.101 386.469L724.685 387.882ZM200.719 -136.791L724.685 387.882L726.101 386.469L202.134 -138.204L200.719 -136.791ZM200.013 -137.498L200.719 -136.791L202.134 -138.204L201.428 -138.912L200.013 -137.498ZM201.429 -140.326L200.014 -138.913L201.427 -137.498L202.842 -138.911L201.429 -140.326ZM184.457 -121.941L185.164 -121.234L186.579 -122.647L185.872 -123.354L184.457 -121.941ZM184.456 -120.527L185.871 -121.94L184.458 -123.355L183.043 -121.942L184.456 -120.527ZM185.164 -121.234L184.457 -121.941L183.042 -120.528L183.749 -119.82L185.164 -121.234ZM709.13 403.44L185.164 -121.234L183.749 -119.82L707.715 404.853L709.13 403.44ZM709.837 404.147L709.13 403.44L707.715 404.853L708.421 405.56L709.837 404.147ZM709.838 402.733L708.422 404.146L709.836 405.561L711.251 404.148L709.838 402.733ZM709.13 403.44L709.837 404.147L711.252 402.734L710.545 402.026L709.13 403.44ZM185.164 -121.234L709.13 403.44L710.545 402.026L186.579 -122.647L185.164 -121.234ZM169.609 -105.676L168.902 -106.384L167.487 -104.971L168.193 -104.263L169.609 -105.676ZM693.575 418.997L169.609 -105.676L168.193 -104.263L692.159 420.41L693.575 418.997ZM694.281 419.705L693.575 418.997L692.159 420.41L692.866 421.118L694.281 419.705ZM692.865 422.532L694.28 421.119L692.867 419.704L691.452 421.117L692.865 422.532ZM690.744 421.823L691.451 422.531L692.866 421.118L692.159 420.41L690.744 421.823ZM166.778 -102.85L690.744 421.823L692.159 420.41L168.193 -104.263L166.778 -102.85ZM166.072 -103.557L166.778 -102.85L168.193 -104.263L167.487 -104.971L166.072 -103.557ZM167.488 -106.385L166.072 -104.972L167.486 -103.556L168.901 -104.97L167.488 -106.385ZM150.516 -88L151.223 -87.2925L152.638 -88.7057L151.931 -89.4133L150.516 -88ZM150.515 -86.5858L151.93 -87.9991L150.517 -89.4143L149.102 -88.001L150.515 -86.5858ZM151.223 -87.2925L150.516 -88.0001L149.101 -86.5868L149.808 -85.8792L151.223 -87.2925ZM675.189 437.381L151.223 -87.2925L149.808 -85.8792L673.774 438.794L675.189 437.381ZM675.896 438.088L675.189 437.381L673.774 438.794L674.48 439.502L675.896 438.088ZM675.896 436.674L674.481 438.087L675.895 439.503L677.31 438.089L675.896 436.674ZM675.189 437.381L675.896 438.088L677.311 436.675L676.604 435.967L675.189 437.381ZM151.223 -87.2925L675.189 437.381L676.604 435.967L152.638 -88.7057L151.223 -87.2925ZM135.667 -71.7352L134.961 -72.4428L133.546 -71.0295L134.252 -70.3219L135.667 -71.7352ZM659.633 452.938L135.667 -71.7352L134.252 -70.3219L658.218 454.351L659.633 452.938ZM660.34 453.646L659.633 452.938L658.218 454.351L658.925 455.059L660.34 453.646ZM658.924 456.473L660.339 455.06L658.926 453.645L657.511 455.058L658.924 456.473ZM656.803 455.765L657.51 456.472L658.925 455.059L658.218 454.351L656.803 455.765ZM132.837 -68.9086L656.803 455.765L658.218 454.351L134.252 -70.3219L132.837 -68.9086ZM132.13 -69.6162L132.837 -68.9086L134.252 -70.3219L133.546 -71.0295L132.13 -69.6162ZM133.547 -72.4437L132.131 -71.0304L133.545 -69.6153L134.96 -71.0285L133.547 -72.4437ZM116.575 -54.0589L117.282 -53.3513L118.697 -54.7646L117.99 -55.4722L116.575 -54.0589ZM116.574 -52.6447L117.989 -54.058L116.576 -55.4731L115.161 -54.0599L116.574 -52.6447ZM117.282 -53.3513L116.575 -54.0589L115.16 -52.6457L115.866 -51.9381L117.282 -53.3513ZM641.248 471.322L117.282 -53.3513L115.866 -51.9381L639.833 472.735L641.248 471.322ZM641.954 472.029L641.248 471.322L639.833 472.735L640.539 473.443L641.954 472.029ZM641.955 470.615L640.54 472.029L641.953 473.444L643.369 472.03L641.955 470.615ZM641.248 471.322L641.954 472.029L643.37 470.616L642.663 469.909L641.248 471.322ZM117.282 -53.3513L641.248 471.322L642.663 469.909L118.697 -54.7646L117.282 -53.3513ZM101.726 -37.794L101.02 -38.5016L99.6045 -37.0884L100.311 -36.3808L101.726 -37.794ZM625.692 486.879L101.726 -37.794L100.311 -36.3808L624.277 488.292L625.692 486.879ZM626.399 487.587L625.692 486.879L624.277 488.292L624.984 489L626.399 487.587ZM624.983 490.414L626.398 489.001L624.985 487.586L623.57 488.999L624.983 490.414ZM622.862 489.706L623.569 490.413L624.984 489L624.277 488.292L622.862 489.706ZM98.8959 -34.9675L622.862 489.706L624.277 488.292L100.311 -36.3808L98.8959 -34.9675ZM98.1893 -35.6751L98.8959 -34.9675L100.311 -36.3808L99.6045 -37.0884L98.1893 -35.6751ZM99.6054 -38.5026L98.1902 -37.0893L99.6035 -35.6742L101.019 -37.0874L99.6054 -38.5026ZM82.6339 -20.1178L83.3405 -19.4102L84.7557 -20.8235L84.0491 -21.5311L82.6339 -20.1178ZM82.6329 -18.7036L84.0481 -20.1168L82.6349 -21.532L81.2197 -20.1188L82.6329 -18.7036ZM83.3405 -19.4102L82.6339 -20.1178L81.2187 -18.7045L81.9254 -17.997L83.3405 -19.4102ZM607.307 505.263L83.3405 -19.4102L81.9254 -17.997L605.891 506.676L607.307 505.263ZM608.013 505.971L607.307 505.263L605.891 506.676L606.598 507.384L608.013 505.971ZM608.014 504.556L606.599 505.97L608.012 507.385L609.427 505.972L608.014 504.556ZM607.307 505.263L608.013 505.971L609.428 504.557L608.722 503.85L607.307 505.263ZM83.3405 -19.4102L607.307 505.263L608.722 503.85L84.7557 -20.8235L83.3405 -19.4102ZM67.7851 -3.85292L67.0785 -4.5605L65.6633 -3.14724L66.37 -2.43966L67.7851 -3.85292ZM591.751 520.82L67.7851 -3.85292L66.37 -2.43966L590.336 522.234L591.751 520.82ZM592.458 521.528L591.751 520.82L590.336 522.234L591.043 522.941L592.458 521.528ZM591.042 524.355L592.457 522.942L591.044 521.527L589.629 522.94L591.042 524.355ZM588.921 523.647L589.628 524.354L591.043 522.941L590.336 522.234L588.921 523.647ZM64.9548 -1.0264L588.921 523.647L590.336 522.234L66.37 -2.43966L64.9548 -1.0264ZM64.2482 -1.73398L64.9548 -1.0264L66.37 -2.43966L65.6633 -3.14724L64.2482 -1.73398ZM65.6643 -4.56145L64.2491 -3.14819L65.6624 -1.73303L67.0776 -3.14629L65.6643 -4.56145ZM48.6928 13.8233L49.3994 14.5309L50.8146 13.1176L50.1079 12.4101L48.6928 13.8233ZM48.6918 15.2375L50.107 13.8243L48.6937 12.4091L47.2786 13.8224L48.6918 15.2375ZM49.3994 14.5309L48.6928 13.8233L47.2776 15.2366L47.9842 15.9442L49.3994 14.5309ZM573.366 539.204L49.3994 14.5309L47.9842 15.9442L571.95 540.617L573.366 539.204ZM574.072 539.912L573.366 539.204L571.95 540.617L572.657 541.325L574.072 539.912ZM574.073 538.497L572.658 539.911L574.071 541.326L575.486 539.913L574.073 538.497ZM573.366 539.204L574.072 539.912L575.487 538.498L574.781 537.791L573.366 539.204ZM49.3994 14.5309L573.366 539.204L574.781 537.791L50.8146 13.1176L49.3994 14.5309ZM33.844 30.0882L33.1374 29.3806L31.7222 30.7939L32.4288 31.5015L33.844 30.0882ZM557.81 554.761L33.844 30.0882L32.4288 31.5015L556.395 556.175L557.81 554.761ZM558.517 555.469L557.81 554.761L556.395 556.175L557.102 556.882L558.517 555.469ZM557.101 558.296L558.516 556.883L557.103 555.468L555.687 556.881L557.101 558.296ZM554.98 557.588L555.686 558.296L557.102 556.882L556.395 556.175L554.98 557.588ZM31.0137 32.9147L554.98 557.588L556.395 556.175L32.4288 31.5015L31.0137 32.9147ZM30.307 32.2071L31.0137 32.9147L32.4288 31.5015L31.7222 30.7939L30.307 32.2071ZM31.7232 29.3797L30.308 30.7929L31.7213 32.2081L33.1364 30.7948L31.7232 29.3797ZM14.7517 47.7645L15.4583 48.472L16.8734 47.0588L16.1668 46.3512L14.7517 47.7645ZM14.7507 49.1787L16.1659 47.7654L14.7526 46.3502L13.3374 47.7635L14.7507 49.1787ZM15.4583 48.472L14.7516 47.7644L13.3365 49.1777L14.0431 49.8853L15.4583 48.472ZM539.424 573.145L15.4583 48.472L14.0431 49.8853L538.009 574.559L539.424 573.145ZM540.131 573.853L539.424 573.145L538.009 574.559L538.716 575.266L540.131 573.853ZM540.132 572.439L538.717 573.852L540.13 575.267L541.545 573.854L540.132 572.439ZM539.424 573.145L540.131 573.853L541.546 572.44L540.84 571.732L539.424 573.145ZM15.4583 48.472L539.424 573.145L540.84 571.732L16.8735 47.0588L15.4583 48.472ZM-0.0971142 64.0293L-0.803746 63.3217L-2.21891 64.735L-1.51228 65.4426L-0.0971142 64.0293ZM523.869 588.703L-0.0971122 64.0293L-1.51228 65.4426L522.454 590.116L523.869 588.703ZM524.576 589.41L523.869 588.703L522.454 590.116L523.16 590.823L524.576 589.41ZM523.16 592.238L524.575 590.824L523.161 589.409L521.746 590.822L523.16 592.238ZM521.039 591.529L521.745 592.237L523.16 590.823L522.454 590.116L521.039 591.529ZM-2.92745 66.8559L521.039 591.529L522.454 590.116L-1.51228 65.4426L-2.92745 66.8559ZM-3.63408 66.1483L-2.92744 66.8559L-1.51228 65.4426L-2.21891 64.735L-3.63408 66.1483ZM-2.21796 63.3208L-3.63313 64.7341L-2.21986 66.1492L-0.804696 64.736L-2.21796 63.3208ZM-19.1895 81.7056L-18.4828 82.4132L-17.0677 80.9999L-17.7743 80.2923L-19.1895 81.7056ZM-19.1904 83.1198L-17.7753 81.7065L-19.1885 80.2914L-20.6037 81.7046L-19.1904 83.1198ZM-18.4828 82.4132L-19.1895 81.7056L-20.6046 83.1188L-19.898 83.8264L-18.4828 82.4132ZM505.483 607.086L-18.4828 82.4132L-19.898 83.8264L504.068 608.5L505.483 607.086ZM506.19 607.794L505.483 607.086L504.068 608.5L504.775 609.207L506.19 607.794ZM506.191 606.38L504.776 607.793L506.189 609.208L507.604 607.795L506.191 606.38ZM505.483 607.086L506.19 607.794L507.605 606.381L506.898 605.673L505.483 607.086ZM-18.4828 82.4132L505.483 607.086L506.898 605.673L-17.0677 80.9999L-18.4828 82.4132Z" fill="black"/>
</g>
<path fill-rule="evenodd" clip-rule="evenodd" d="M460.169 499.73C472.848 490.814 482.892 486.972 502.735 482.453C518.441 478.877 533.833 479.02 548.314 482.727C545.167 491.23 544.107 500.478 545.852 509.368C549.806 529.525 558.571 546.794 571.659 556.298C580.179 562.484 591.196 564.084 600.141 560.636C609.695 556.953 615.349 548.223 614.768 536.368C614.454 529.952 610.906 523.462 604.755 516.664C601.608 513.187 598.213 510.044 593.423 505.975C593.639 506.158 589.819 502.932 588.969 502.194C577.473 492.21 564.648 485.227 550.994 481.377C558.201 464.108 574.366 450.52 592.594 451.137C632.342 452.484 670.073 476.447 687.594 511.646L689.384 510.755C671.535 474.895 633.139 450.509 592.662 449.139C573.436 448.488 556.501 462.747 549.048 480.85C534.193 477.006 518.397 476.836 502.291 480.503C482.216 485.075 471.946 489.004 459.019 498.094C426.339 521.073 412.65 550.259 416.051 583.827C418.981 612.746 434.604 644.138 459.723 674.982C464.317 680.623 469.466 686.139 476.156 692.744C478.592 695.15 480.576 697.069 484.991 701.309C486.066 702.342 486.516 702.773 487.098 703.333C487.948 704.151 488.771 704.619 490.625 705.486C492.453 706.342 493.34 706.862 493.885 707.552C493.623 707.574 493.27 707.588 492.754 707.602C491.615 707.633 491.16 707.664 490.664 707.793L491.168 709.729C491.453 709.655 491.852 709.627 492.807 709.602C493.946 709.571 494.401 709.539 494.897 709.41C495.956 709.135 496.572 708.285 496.026 707.211C495.232 705.648 494.177 704.941 491.472 703.675C489.82 702.902 489.121 702.504 488.484 701.892C487.901 701.331 487.452 700.9 486.377 699.867C481.968 695.633 479.988 693.718 477.561 691.321C470.919 684.762 465.815 679.296 461.274 673.719C436.381 643.152 420.925 612.098 418.041 583.625C414.713 550.785 428.075 522.298 460.169 499.73ZM572.834 554.68C560.224 545.523 551.681 528.691 547.814 508.983C546.13 500.401 547.181 491.46 550.255 483.246C563.702 487.006 576.332 493.868 587.658 503.704C588.52 504.453 592.355 507.691 592.128 507.499C596.856 511.516 600.197 514.608 603.272 518.006C609.142 524.493 612.484 530.606 612.771 536.466C613.309 547.461 608.168 555.398 599.422 558.77C591.12 561.97 580.813 560.473 572.834 554.68Z" fill="black"/>
<rect y="31" width="238" height="240" rx="24" fill="#FFB200"/>
<circle cx="137" cy="534" r="114" fill="#D58E5E"/>
<rect x="84" y="108" width="433" height="449" rx="24" fill="#D8D8D8"/>
<mask id="mask1_0_153" style="mask-type:luminance" maskUnits="userSpaceOnUse" x="84" y="108" width="433" height="449">
<rect x="84" y="108" width="433" height="449" rx="24" fill="white"/>
</mask>
<g mask="url(#mask1_0_153)">
</g>
</svg>
