<svg width="583" height="597" viewBox="0 0 583 597" fill="none" xmlns="http://www.w3.org/2000/svg">
<mask id="mask0_0_471" style="mask-type:luminance" maskUnits="userSpaceOnUse" x="0" y="197" width="400" height="400">
<circle cx="200" cy="397" r="200" fill="white"/>
</mask>
<g mask="url(#mask0_0_471)">
<path d="M100.018 -10.5001L100.725 -11.2068L100.019 -11.9143L99.311 -11.2077L100.018 -10.5001ZM100.724 -9.79255L101.432 -10.4992L100.724 -9.79255ZM98.6025 -9.08687L97.8959 -9.79446L97.1883 -9.08783L97.8949 -8.38024L98.6025 -9.08687ZM99.3091 -8.37929L100.017 -9.08592L100.017 -9.08592L99.3091 -8.37929ZM623.275 516.294L623.983 515.587L623.275 516.294ZM623.982 517.002L623.274 517.708L623.981 518.416L624.689 517.709L623.982 517.002ZM625.397 515.588L626.104 516.296L626.811 515.589L626.105 514.882L625.397 515.588ZM624.69 514.881L623.983 515.587L624.69 514.881ZM83.0471 6.47043L83.7547 5.7638L83.048 5.05622L82.3405 5.76285L83.0471 6.47043ZM83.7537 7.17801L84.4613 6.47138L84.4613 6.47138L83.7537 7.17801ZM81.6319 7.88369L80.9253 7.17611L80.2177 7.88274L80.9243 8.59032L81.6319 7.88369ZM82.3386 8.59127L81.631 9.2979L81.631 9.2979L82.3386 8.59127ZM606.305 533.264L605.597 533.971L606.305 533.264ZM607.011 533.972L606.304 534.679L607.01 535.386L607.718 534.68L607.011 533.972ZM608.426 532.559L609.133 533.266L609.841 532.56L609.134 531.852L608.426 532.559ZM607.72 531.851L608.427 531.145L607.72 531.851ZM66.7832 24.1486L66.0756 24.8552L66.0756 24.8552L66.7832 24.1486ZM66.0765 23.441L66.7841 22.7344L66.0775 22.0268L65.3699 22.7334L66.0765 23.441ZM590.749 548.822L591.457 548.115L590.749 548.822ZM591.456 549.529L592.163 550.237L592.87 549.53L592.163 548.823L591.456 549.529ZM590.041 550.943L589.333 551.649L590.04 552.357L590.747 551.65L590.041 550.943ZM589.334 550.235L590.042 549.528L589.334 550.235ZM65.368 25.5618L64.6604 26.2685L64.6604 26.2685L65.368 25.5618ZM64.6614 24.8543L63.9547 24.1467L63.2472 24.8533L63.9538 25.5609L64.6614 24.8543ZM49.106 40.4116L49.8136 39.7049L49.1069 38.9973L48.3993 39.704L49.106 40.4116ZM49.8126 41.1191L50.5202 40.4125L50.5202 40.4125L49.8126 41.1191ZM47.6908 41.8248L46.9842 41.1172L46.2766 41.8239L46.9832 42.5314L47.6908 41.8248ZM48.3974 42.5324L49.105 41.8258L49.105 41.8258L48.3974 42.5324ZM572.364 567.206L571.656 567.912L572.364 567.206ZM573.07 567.913L572.363 568.62L573.069 569.327L573.777 568.621L573.07 567.913ZM574.485 566.5L575.192 567.208L575.9 566.501L575.193 565.793L574.485 566.5ZM573.779 565.792L573.071 566.499L573.779 565.792ZM32.842 58.0897L33.5496 57.3831L33.5496 57.3831L32.842 58.0897ZM32.1354 57.3821L32.843 56.6755L32.1364 55.9679L31.4288 56.6745L32.1354 57.3821ZM556.808 582.763L556.101 583.47L556.808 582.763ZM557.515 583.471L558.221 584.178L558.929 583.471L558.222 582.764L557.515 583.471ZM556.1 584.884L555.392 585.59L556.099 586.298L556.806 585.591L556.1 584.884ZM555.393 584.176L554.685 584.883L555.393 584.176ZM31.4269 59.503L32.1345 58.7963L32.1345 58.7963L31.4269 59.503ZM30.7202 58.7954L30.0136 58.0878L29.306 58.7944L30.0127 59.502L30.7202 58.7954ZM15.1648 74.3527L15.8724 73.6461L15.1658 72.9385L14.4582 73.6451L15.1648 74.3527ZM15.8715 75.0603L16.5791 74.3536L16.5791 74.3536L15.8715 75.0603ZM13.7497 75.7659L13.043 75.0584L12.3355 75.765L13.0421 76.4726L13.7497 75.7659ZM14.4563 76.4735L15.1639 75.7669L15.1639 75.7669L14.4563 76.4735ZM538.422 601.147L537.715 601.853L538.422 601.147ZM539.129 601.854L538.421 602.561L539.128 603.269L539.836 602.562L539.129 601.854ZM540.544 600.441L541.251 601.149L541.958 600.442L541.252 599.734L540.544 600.441ZM539.838 599.733L539.13 600.44L539.838 599.733ZM-1.09909 92.0308L-0.391503 91.3242L-0.391505 91.3242L-1.09909 92.0308ZM-1.80572 91.3232L-1.09814 90.6166L-1.80477 89.909L-2.51235 90.6157L-1.80572 91.3232ZM522.867 616.704L522.159 617.411L522.867 616.704ZM523.574 617.412L524.28 618.119L524.988 617.413L524.281 616.705L523.574 617.412ZM522.158 618.825L521.451 619.532L522.158 620.239L522.865 619.532L522.158 618.825ZM521.452 618.117L520.744 618.824L521.452 618.117ZM-2.51425 93.4441L-1.80667 92.7375L-1.80667 92.7375L-2.51425 93.4441ZM-3.22089 92.7365L-3.92752 92.0289L-4.6351 92.7356L-3.92847 93.4431L-3.22089 92.7365ZM-18.7763 108.294L-18.0687 107.587L-18.7753 106.88L-19.4829 107.586L-18.7763 108.294ZM-18.0696 109.001L-17.3621 108.295L-17.3621 108.295L-18.0696 109.001ZM-20.1914 109.707L-20.8981 108.999L-21.6057 109.706L-20.899 110.414L-20.1914 109.707ZM-19.4848 110.415L-18.7772 109.708L-18.7772 109.708L-19.4848 110.415ZM504.481 635.088L503.774 635.795L504.481 635.088ZM505.188 635.795L504.48 636.502L505.187 637.21L505.895 636.503L505.188 635.795ZM506.603 634.382L507.31 635.09L508.017 634.383L507.311 633.676L506.603 634.382ZM505.896 633.675L505.189 634.381L505.896 633.675ZM-35.0402 125.972L-34.3326 125.265L-34.3326 125.265L-35.0402 125.972ZM-35.7468 125.264L-35.0393 124.558L-35.7459 123.85L-36.4535 124.557L-35.7468 125.264ZM488.926 650.645L488.218 651.352L488.926 650.645ZM489.633 651.353L490.339 652.06L491.047 651.354L490.34 650.646L489.633 651.353ZM488.217 652.766L487.51 653.473L488.216 654.18L488.924 653.474L488.217 652.766ZM487.511 652.058L486.803 652.765L487.511 652.058ZM-36.4554 127.385L-35.7478 126.679L-35.7478 126.679L-36.4554 127.385ZM-37.162 126.678L-37.8686 125.97L-38.5762 126.677L-37.8696 127.384L-37.162 126.678ZM-52.7174 142.235L-52.0098 141.528L-52.7165 140.821L-53.424 141.527L-52.7174 142.235ZM-52.0108 142.943L-51.3032 142.236L-51.3032 142.236L-52.0108 142.943ZM-54.1326 143.648L-54.8392 142.941L-55.5468 143.647L-54.8402 144.355L-54.1326 143.648ZM-53.4259 144.356L-52.7184 143.649L-52.7184 143.649L-53.4259 144.356ZM470.54 669.029L469.833 669.736L470.54 669.029ZM471.247 669.737L470.539 670.443L471.246 671.151L471.953 670.444L471.247 669.737ZM472.662 668.323L473.369 669.031L474.076 668.324L473.37 667.617L472.662 668.323ZM471.955 667.616L471.248 668.322L471.955 667.616ZM-68.9813 159.913L-68.2738 159.206L-68.2738 159.206L-68.9813 159.913ZM-69.688 159.205L-68.9804 158.499L-69.687 157.791L-70.3946 158.498L-69.688 159.205ZM454.985 684.586L454.277 685.293L454.985 684.586ZM455.691 685.294L456.398 686.001L457.106 685.295L456.399 684.587L455.691 685.294ZM454.276 686.707L453.569 687.414L454.275 688.121L454.983 687.415L454.276 686.707ZM453.57 686L452.862 686.706L453.57 686ZM-70.3965 161.326L-69.6889 160.62L-69.6889 160.62L-70.3965 161.326ZM-71.1031 160.619L-71.8098 159.911L-72.5174 160.618L-71.8107 161.325L-71.1031 160.619ZM-86.6585 176.176L-85.9509 175.469L-86.6576 174.762L-87.3652 175.468L-86.6585 176.176ZM-85.9519 176.884L-85.2443 176.177L-85.2443 176.177L-85.9519 176.884ZM-88.0737 177.589L-88.7803 176.882L-89.4879 177.588L-88.7813 178.296L-88.0737 177.589ZM-87.3671 178.297L-86.6595 177.59L-86.6595 177.59L-87.3671 178.297ZM436.599 702.97L435.891 703.677L436.599 702.97ZM437.306 703.678L436.598 704.384L437.305 705.092L438.012 704.385L437.306 703.678ZM438.721 702.264L439.427 702.972L440.135 702.265L439.428 701.558L438.721 702.264ZM438.014 701.557L437.307 702.263L438.014 701.557ZM-102.922 193.854L-102.215 193.148L-102.215 193.148L-102.922 193.854ZM-103.629 193.147L-102.922 192.44L-103.628 191.732L-104.336 192.439L-103.629 193.147ZM421.044 718.527L420.336 719.234L421.044 718.527ZM421.75 719.235L422.457 719.943L423.164 719.236L422.458 718.528L421.75 719.235ZM420.335 720.648L419.628 721.355L420.334 722.062L421.042 721.356L420.335 720.648ZM419.628 719.941L418.921 720.647L419.628 719.941ZM-104.338 195.267L-103.63 194.561L-103.63 194.561L-104.338 195.267ZM-105.044 194.56L-105.751 193.852L-106.458 194.559L-105.752 195.267L-105.044 194.56ZM-120.6 210.117L-119.892 209.411L-120.599 208.703L-121.306 209.41L-120.6 210.117ZM-119.893 210.825L-119.185 210.118L-119.185 210.118L-119.893 210.825ZM-122.015 211.53L-122.721 210.823L-123.429 211.529L-122.722 212.237L-122.015 211.53ZM-121.308 212.238L-120.601 211.531L-120.601 211.531L-121.308 212.238ZM402.658 736.911L401.95 737.618L402.658 736.911ZM403.365 737.619L402.657 738.325L403.364 739.033L404.071 738.326L403.365 737.619ZM404.78 736.206L405.486 736.913L406.194 736.207L405.487 735.499L404.78 736.206ZM404.073 735.498L403.366 736.205L404.073 735.498ZM-136.864 227.795L-136.156 227.089L-136.156 227.089L-136.864 227.795ZM-137.57 227.088L-136.863 226.381L-137.569 225.674L-138.277 226.38L-137.57 227.088ZM387.103 752.469L386.395 753.175L387.103 752.469ZM387.809 753.176L388.516 753.884L389.223 753.177L388.517 752.469L387.809 753.176ZM386.394 754.589L385.686 755.296L386.393 756.004L387.101 755.297L386.394 754.589ZM385.687 753.882L384.98 754.588L385.687 753.882ZM-138.279 229.209L-137.571 228.502L-137.571 228.502L-138.279 229.209ZM-138.985 228.501L-139.692 227.793L-140.4 228.5L-139.693 229.208L-138.985 228.501ZM-154.541 244.058L-153.833 243.352L-154.54 242.644L-155.247 243.351L-154.541 244.058ZM-153.834 244.766L-153.127 244.059L-153.127 244.059L-153.834 244.766ZM-155.956 245.472L-156.663 244.764L-157.37 245.471L-156.664 246.178L-155.956 245.472ZM-155.249 246.179L-154.542 245.473L-154.542 245.473L-155.249 246.179ZM368.717 770.852L368.009 771.559L368.717 770.852ZM369.423 771.56L368.716 772.267L369.422 772.974L370.13 772.268L369.423 771.56ZM370.839 770.147L371.545 770.854L372.253 770.148L371.546 769.44L370.839 770.147ZM370.132 769.439L369.424 770.146L370.132 769.439ZM-170.805 261.736L-170.097 261.03L-170.097 261.03L-170.805 261.736ZM-171.511 261.029L-170.804 260.322L-171.51 259.615L-172.218 260.321L-171.511 261.029ZM353.161 786.41L352.454 787.116L353.161 786.41ZM353.868 787.117L354.575 787.825L355.282 787.118L354.576 786.411L353.868 787.117ZM352.453 788.531L351.745 789.237L352.452 789.945L353.16 789.238L352.453 788.531ZM351.746 787.823L351.039 788.53L351.746 787.823ZM-172.22 263.15L-171.512 262.443L-171.512 262.443L-172.22 263.15ZM-172.927 262.442L-173.633 261.735L-174.341 262.441L-173.634 263.149L-172.927 262.442ZM-188.482 277.999L-187.774 277.293L-188.481 276.585L-189.189 277.292L-188.482 277.999ZM-187.775 278.707L-187.068 278L-187.068 278L-187.775 278.707ZM-189.897 279.413L-190.604 278.705L-191.311 279.412L-190.605 280.119L-189.897 279.413ZM-189.19 280.12L-188.483 279.414L-188.483 279.414L-189.19 280.12ZM334.776 804.793L334.068 805.5L334.776 804.793ZM335.482 805.501L334.775 806.208L335.481 806.915L336.189 806.209L335.482 805.501ZM336.897 804.088L337.604 804.795L338.312 804.089L337.605 803.381L336.897 804.088ZM336.191 803.38L335.483 804.087L336.191 803.38ZM99.3101 -9.7935L100.017 -9.08592L101.432 -10.4992L100.725 -11.2068L99.3101 -9.7935ZM99.3091 -8.37929L100.724 -9.79255L99.311 -11.2077L97.8959 -9.79446L99.3091 -8.37929ZM100.017 -9.08592L99.3101 -9.7935L97.8949 -8.38024L98.6015 -7.67266L100.017 -9.08592ZM623.983 515.587L100.017 -9.08592L98.6015 -7.67266L622.568 517.001L623.983 515.587ZM624.689 516.295L623.983 515.587L622.568 517.001L623.274 517.708L624.689 516.295ZM624.69 514.881L623.275 516.294L624.689 517.709L626.104 516.296L624.69 514.881ZM623.983 515.587L624.689 516.295L626.105 514.882L625.398 514.174L623.983 515.587ZM100.017 -9.08592L623.983 515.587L625.398 514.174L101.432 -10.4992L100.017 -9.08592ZM82.3395 7.17706L83.0461 7.88464L84.4613 6.47138L83.7547 5.7638L82.3395 7.17706ZM82.3386 8.59127L83.7537 7.17802L82.3405 5.76285L80.9253 7.17611L82.3386 8.59127ZM83.0461 7.88464L82.3395 7.17706L80.9243 8.59032L81.631 9.2979L83.0461 7.88464ZM607.012 532.558L83.0461 7.88464L81.631 9.2979L605.597 533.971L607.012 532.558ZM607.719 533.265L607.012 532.558L605.597 533.971L606.304 534.679L607.719 533.265ZM607.72 531.851L606.305 533.264L607.718 534.68L609.133 533.266L607.72 531.851ZM607.012 532.558L607.719 533.265L609.134 531.852L608.427 531.145L607.012 532.558ZM83.0461 7.88464L607.012 532.558L608.427 531.145L84.4613 6.47138L83.0461 7.88464ZM67.4907 23.4419L66.7841 22.7344L65.369 24.1476L66.0756 24.8552L67.4907 23.4419ZM591.457 548.115L67.4907 23.4419L66.0756 24.8552L590.042 549.528L591.457 548.115ZM592.163 548.823L591.457 548.115L590.042 549.528L590.748 550.236L592.163 548.823ZM590.747 551.65L592.163 550.237L590.749 548.822L589.334 550.235L590.747 551.65ZM588.627 550.942L589.333 551.649L590.748 550.236L590.042 549.528L588.627 550.942ZM64.6604 26.2685L588.627 550.942L590.042 549.528L66.0756 24.8552L64.6604 26.2685ZM63.9538 25.5609L64.6604 26.2685L66.0756 24.8552L65.369 24.1476L63.9538 25.5609ZM65.3699 22.7334L63.9547 24.1467L65.368 25.5618L66.7832 24.1486L65.3699 22.7334ZM48.3984 41.1182L49.105 41.8258L50.5202 40.4125L49.8136 39.7049L48.3984 41.1182ZM48.3974 42.5324L49.8126 41.1191L48.3993 39.704L46.9842 41.1172L48.3974 42.5324ZM49.105 41.8258L48.3984 41.1182L46.9832 42.5314L47.6899 43.239L49.105 41.8258ZM573.071 566.499L49.105 41.8258L47.6899 43.239L571.656 567.912L573.071 566.499ZM573.778 567.207L573.071 566.499L571.656 567.912L572.363 568.62L573.778 567.207ZM573.779 565.792L572.364 567.206L573.777 568.621L575.192 567.208L573.779 565.792ZM573.071 566.499L573.778 567.207L575.193 565.793L574.486 565.086L573.071 566.499ZM49.105 41.8258L573.071 566.499L574.486 565.086L50.5202 40.4125L49.105 41.8258ZM33.5496 57.3831L32.843 56.6755L31.4278 58.0888L32.1345 58.7963L33.5496 57.3831ZM557.516 582.056L33.5496 57.3831L32.1345 58.7963L556.101 583.47L557.516 582.056ZM558.222 582.764L557.516 582.056L556.101 583.47L556.807 584.177L558.222 582.764ZM556.806 585.591L558.221 584.178L556.808 582.763L555.393 584.176L556.806 585.591ZM554.685 584.883L555.392 585.59L556.807 584.177L556.101 583.47L554.685 584.883ZM30.7193 60.2096L554.685 584.883L556.101 583.47L32.1345 58.7963L30.7193 60.2096ZM30.0127 59.502L30.7193 60.2096L32.1345 58.7963L31.4278 58.0887L30.0127 59.502ZM31.4288 56.6745L30.0136 58.0878L31.4269 59.503L32.842 58.0897L31.4288 56.6745ZM14.4573 75.0593L15.1639 75.7669L16.5791 74.3536L15.8724 73.6461L14.4573 75.0593ZM14.4563 76.4735L15.8715 75.0603L14.4582 73.6451L13.043 75.0584L14.4563 76.4735ZM15.1639 75.7669L14.4573 75.0593L13.0421 76.4726L13.7487 77.1802L15.1639 75.7669ZM539.13 600.44L15.1639 75.7669L13.7487 77.1802L537.715 601.853L539.13 600.44ZM539.837 601.148L539.13 600.44L537.715 601.853L538.421 602.561L539.837 601.148ZM539.838 599.733L538.422 601.147L539.836 602.562L541.251 601.149L539.838 599.733ZM539.13 600.44L539.837 601.148L541.252 599.734L540.545 599.027L539.13 600.44ZM15.1639 75.7669L539.13 600.44L540.545 599.027L16.5791 74.3536L15.1639 75.7669ZM-0.391505 91.3242L-1.09814 90.6166L-2.5133 92.0299L-1.80667 92.7375L-0.391505 91.3242ZM523.575 615.997L-0.391503 91.3242L-1.80667 92.7375L522.159 617.411L523.575 615.997ZM524.281 616.705L523.575 615.997L522.159 617.411L522.866 618.118L524.281 616.705ZM522.865 619.532L524.28 618.119L522.867 616.704L521.452 618.117L522.865 619.532ZM520.744 618.824L521.451 619.532L522.866 618.118L522.159 617.411L520.744 618.824ZM-3.22184 94.1507L520.744 618.824L522.159 617.411L-1.80667 92.7375L-3.22184 94.1507ZM-3.92847 93.4431L-3.22184 94.1507L-1.80667 92.7375L-2.5133 92.0299L-3.92847 93.4431ZM-2.51235 90.6157L-3.92752 92.0289L-2.51425 93.4441L-1.09909 92.0308L-2.51235 90.6157ZM-19.4839 109L-18.7772 109.708L-17.3621 108.295L-18.0687 107.587L-19.4839 109ZM-19.4848 110.415L-18.0696 109.001L-19.4829 107.586L-20.8981 108.999L-19.4848 110.415ZM-18.7772 109.708L-19.4839 109L-20.899 110.414L-20.1924 111.121L-18.7772 109.708ZM505.189 634.381L-18.7772 109.708L-20.1924 111.121L503.774 635.795L505.189 634.381ZM505.896 635.089L505.189 634.381L503.774 635.795L504.48 636.502L505.896 635.089ZM505.896 633.675L504.481 635.088L505.895 636.503L507.31 635.09L505.896 633.675ZM505.189 634.381L505.896 635.089L507.311 633.676L506.604 632.968L505.189 634.381ZM-18.7772 109.708L505.189 634.381L506.604 632.968L-17.3621 108.295L-18.7772 109.708ZM-34.3326 125.265L-35.0393 124.558L-36.4544 125.971L-35.7478 126.679L-34.3326 125.265ZM489.633 649.939L-34.3326 125.265L-35.7478 126.679L488.218 651.352L489.633 649.939ZM490.34 650.646L489.633 649.939L488.218 651.352L488.925 652.059L490.34 650.646ZM488.924 653.474L490.339 652.06L488.926 650.645L487.511 652.058L488.924 653.474ZM486.803 652.765L487.51 653.473L488.925 652.059L488.218 651.352L486.803 652.765ZM-37.163 128.092L486.803 652.765L488.218 651.352L-35.7478 126.679L-37.163 128.092ZM-37.8696 127.384L-37.163 128.092L-35.7478 126.679L-36.4544 125.971L-37.8696 127.384ZM-36.4535 124.557L-37.8686 125.97L-36.4554 127.385L-35.0402 125.972L-36.4535 124.557ZM-53.425 142.942L-52.7184 143.649L-51.3032 142.236L-52.0098 141.528L-53.425 142.942ZM-53.4259 144.356L-52.0108 142.943L-53.424 141.527L-54.8392 142.941L-53.4259 144.356ZM-52.7184 143.649L-53.425 142.942L-54.8402 144.355L-54.1335 145.062L-52.7184 143.649ZM471.248 668.322L-52.7184 143.649L-54.1335 145.062L469.833 669.736L471.248 668.322ZM471.954 669.03L471.248 668.322L469.833 669.736L470.539 670.443L471.954 669.03ZM471.955 667.616L470.54 669.029L471.953 670.444L473.369 669.031L471.955 667.616ZM471.248 668.322L471.954 669.03L473.37 667.617L472.663 666.909L471.248 668.322ZM-52.7184 143.649L471.248 668.322L472.663 666.909L-51.3032 142.236L-52.7184 143.649ZM-68.2738 159.206L-68.9804 158.499L-70.3955 159.912L-69.6889 160.62L-68.2738 159.206ZM455.692 683.88L-68.2738 159.206L-69.6889 160.62L454.277 685.293L455.692 683.88ZM456.399 684.587L455.692 683.88L454.277 685.293L454.984 686.001L456.399 684.587ZM454.983 687.415L456.398 686.001L454.985 684.586L453.57 686L454.983 687.415ZM452.862 686.706L453.569 687.414L454.984 686.001L454.277 685.293L452.862 686.706ZM-71.1041 162.033L452.862 686.706L454.277 685.293L-69.6889 160.62L-71.1041 162.033ZM-71.8107 161.325L-71.1041 162.033L-69.6889 160.62L-70.3956 159.912L-71.8107 161.325ZM-70.3946 158.498L-71.8098 159.911L-70.3965 161.326L-68.9813 159.913L-70.3946 158.498ZM-87.3661 176.883L-86.6595 177.59L-85.2443 176.177L-85.9509 175.469L-87.3661 176.883ZM-87.3671 178.297L-85.9519 176.884L-87.3652 175.468L-88.7803 176.882L-87.3671 178.297ZM-86.6595 177.59L-87.3661 176.883L-88.7813 178.296L-88.0746 179.004L-86.6595 177.59ZM437.307 702.263L-86.6595 177.59L-88.0746 179.004L435.891 703.677L437.307 702.263ZM438.013 702.971L437.307 702.263L435.891 703.677L436.598 704.384L438.013 702.971ZM438.014 701.557L436.599 702.97L438.012 704.385L439.427 702.972L438.014 701.557ZM437.307 702.263L438.013 702.971L439.428 701.558L438.722 700.85L437.307 702.263ZM-86.6595 177.59L437.307 702.263L438.722 700.85L-85.2443 176.177L-86.6595 177.59ZM-102.215 193.148L-102.922 192.44L-104.337 193.853L-103.63 194.561L-102.215 193.148ZM421.751 717.821L-102.215 193.148L-103.63 194.561L420.336 719.234L421.751 717.821ZM422.458 718.528L421.751 717.821L420.336 719.234L421.043 719.942L422.458 718.528ZM421.042 721.356L422.457 719.943L421.044 718.527L419.628 719.941L421.042 721.356ZM418.921 720.647L419.628 721.355L421.043 719.942L420.336 719.234L418.921 720.647ZM-105.045 195.974L418.921 720.647L420.336 719.234L-103.63 194.561L-105.045 195.974ZM-105.752 195.267L-105.045 195.974L-103.63 194.561L-104.337 193.853L-105.752 195.267ZM-104.336 192.439L-105.751 193.852L-104.338 195.267L-102.922 193.854L-104.336 192.439ZM-121.307 210.824L-120.601 211.531L-119.185 210.118L-119.892 209.411L-121.307 210.824ZM-121.308 212.238L-119.893 210.825L-121.306 209.41L-122.721 210.823L-121.308 212.238ZM-120.601 211.531L-121.307 210.824L-122.722 212.237L-122.016 212.945L-120.601 211.531ZM403.366 736.205L-120.601 211.531L-122.016 212.945L401.95 737.618L403.366 736.205ZM404.072 736.912L403.366 736.205L401.95 737.618L402.657 738.325L404.072 736.912ZM404.073 735.498L402.658 736.911L404.071 738.326L405.486 736.913L404.073 735.498ZM403.366 736.205L404.072 736.912L405.487 735.499L404.781 734.791L403.366 736.205ZM-120.601 211.531L403.366 736.205L404.781 734.791L-119.185 210.118L-120.601 211.531ZM-136.156 227.089L-136.863 226.381L-138.278 227.794L-137.571 228.502L-136.156 227.089ZM387.81 751.762L-136.156 227.089L-137.571 228.502L386.395 753.175L387.81 751.762ZM388.517 752.469L387.81 751.762L386.395 753.175L387.102 753.883L388.517 752.469ZM387.101 755.297L388.516 753.884L387.103 752.469L385.687 753.882L387.101 755.297ZM384.98 754.588L385.686 755.296L387.102 753.883L386.395 753.175L384.98 754.588ZM-138.986 229.915L384.98 754.588L386.395 753.175L-137.571 228.502L-138.986 229.915ZM-139.693 229.208L-138.986 229.915L-137.571 228.502L-138.278 227.794L-139.693 229.208ZM-138.277 226.38L-139.692 227.793L-138.279 229.209L-136.864 227.795L-138.277 226.38ZM-155.248 244.765L-154.542 245.473L-153.127 244.059L-153.833 243.352L-155.248 244.765ZM-155.249 246.179L-153.834 244.766L-155.247 243.351L-156.663 244.764L-155.249 246.179ZM-154.542 245.473L-155.248 244.765L-156.664 246.178L-155.957 246.886L-154.542 245.473ZM369.424 770.146L-154.542 245.473L-155.957 246.886L368.009 771.559L369.424 770.146ZM370.131 770.853L369.424 770.146L368.009 771.559L368.716 772.267L370.131 770.853ZM370.132 769.439L368.717 770.852L370.13 772.268L371.545 770.854L370.132 769.439ZM369.424 770.146L370.131 770.853L371.546 769.44L370.84 768.732L369.424 770.146ZM-154.542 245.473L369.424 770.146L370.84 768.732L-153.127 244.059L-154.542 245.473ZM-170.097 261.03L-170.804 260.322L-172.219 261.736L-171.512 262.443L-170.097 261.03ZM353.869 785.703L-170.097 261.03L-171.512 262.443L352.454 787.116L353.869 785.703ZM354.576 786.411L353.869 785.703L352.454 787.116L353.16 787.824L354.576 786.411ZM353.16 789.238L354.575 787.825L353.161 786.41L351.746 787.823L353.16 789.238ZM351.039 788.53L351.745 789.237L353.16 787.824L352.454 787.116L351.039 788.53ZM-172.927 263.856L351.039 788.53L352.454 787.116L-171.512 262.443L-172.927 263.856ZM-173.634 263.149L-172.927 263.856L-171.512 262.443L-172.219 261.735L-173.634 263.149ZM-172.218 260.321L-173.633 261.735L-172.22 263.15L-170.805 261.736L-172.218 260.321ZM-189.189 278.706L-188.483 279.414L-187.068 278L-187.774 277.293L-189.189 278.706ZM-189.19 280.12L-187.775 278.707L-189.189 277.292L-190.604 278.705L-189.19 280.12ZM-188.483 279.414L-189.189 278.706L-190.605 280.119L-189.898 280.827L-188.483 279.414ZM335.483 804.087L-188.483 279.414L-189.898 280.827L334.068 805.5L335.483 804.087ZM336.19 804.794L335.483 804.087L334.068 805.5L334.775 806.208L336.19 804.794ZM336.191 803.38L334.776 804.793L336.189 806.209L337.604 804.795L336.191 803.38ZM335.483 804.087L336.19 804.794L337.605 803.381L336.898 802.674L335.483 804.087ZM-188.483 279.414L335.483 804.087L336.898 802.674L-187.068 278L-188.483 279.414Z" fill="black"/>
</g>
<path fill-rule="evenodd" clip-rule="evenodd" d="M125.664 65.5227C131.263 57.1175 129.547 48.2399 122.267 39.9407C119.516 36.8034 115.988 33.8294 112.224 31.2973C113.409 30.3466 114.675 29.395 116.019 28.4435C125.462 21.7587 138.855 15.361 146.169 13.2373C159.014 9.50785 172.774 6.60825 188.521 4.15173C196.561 2.89763 204.286 2.48768 211.628 3.00883C221.686 3.72271 232.056 5.41499 242.78 8.01444C246.387 8.88879 249.187 9.94205 255.43 12.584C258.589 13.9208 260.001 14.5013 261.788 15.1739L262.493 13.3019C260.739 12.6421 259.344 12.0684 256.21 10.7421C249.866 8.05788 246.999 6.97919 243.251 6.07073C232.423 3.4461 221.944 1.73599 211.77 1.01385C204.269 0.481464 196.395 0.899346 188.213 2.17563C172.387 4.64439 158.547 7.56106 145.612 11.3166C138.086 13.5018 124.49 19.9961 114.863 26.8111C113.295 27.9212 111.825 29.0356 110.459 30.1532C107.03 28.012 103.477 26.2605 100.188 25.0996C79.1615 17.6765 50.0437 25.948 36.4821 43.5015C7.85762 80.5518 28.9344 134.253 75.3594 141.784C79.159 142.4 83.407 142.01 88.2199 140.764C91.7959 139.838 95.4281 138.531 100.143 136.579C99.4699 136.858 107.276 133.562 109.069 132.875L108.353 131.007C106.523 131.709 98.6729 135.023 99.3782 134.731C94.7416 136.651 91.1868 137.93 87.7186 138.828C83.1523 140.01 79.1698 140.376 75.6796 139.809C30.7534 132.522 10.3658 80.5767 38.0648 44.7243C51.0935 27.8604 79.3023 19.8472 99.5226 26.9856C102.501 28.037 105.719 29.6022 108.851 31.5115C99.3474 39.8142 95.6379 48.262 99.7692 56.3678C101.295 59.3624 106.242 63.8952 111.065 66.5204C117.296 69.9117 122.682 70.0004 125.664 65.5227ZM112.021 64.7637C107.526 62.3168 102.873 58.0534 101.551 55.4596C97.8918 48.28 101.431 40.4985 110.616 32.6298C114.425 35.1376 118.01 38.1201 120.764 41.2595C127.501 48.9405 129.031 56.8594 124 64.414C121.749 67.7936 117.459 67.723 112.021 64.7637Z" fill="black"/>
<circle cx="469" cy="270" r="114" fill="#D58E5E"/>
<rect x="80" y="81" width="433" height="449" rx="24" fill="#D8D8D8"/>
<mask id="mask1_0_471" style="mask-type:luminance" maskUnits="userSpaceOnUse" x="80" y="81" width="433" height="449">
<rect x="80" y="81" width="433" height="449" rx="24" fill="white"/>
</mask>
<g mask="url(#mask1_0_471)">
</g>
</svg>
