<svg width="297" height="268" viewBox="0 0 297 268" fill="none" xmlns="http://www.w3.org/2000/svg">
<path d="M159.666 149.779L161.051 148.336C168.58 155.564 182.403 155.004 198.981 148.134C212.988 142.329 227.251 132.491 233.204 124.907C239.08 117.421 243.088 110.83 245.514 104.031C248.098 96.788 249.512 89.7203 251.211 77.4827C251.282 76.9687 251.356 76.4321 251.444 75.7906C251.498 75.3987 251.56 74.9446 251.676 74.0988C251.771 73.4083 251.841 72.8951 251.911 72.3918C255.257 48.18 248.273 31.6581 232.085 20.6351C219.149 11.8261 201.884 6.92581 174.673 2.80791C172.433 2.46901 170.053 2.61694 166.818 3.17193C166.304 3.25999 165.891 3.33085 164.964 3.48968C156.964 4.86091 153.393 5.48178 148.949 6.28645C138.393 8.19808 129.78 9.96397 121.585 11.9634C93.6764 18.772 77.1521 27.6454 47.1673 50.562C24.6601 67.7636 3.94922 101.824 2.44589 127.097C0.125747 166.1 9.77235 193.887 31.3135 214.491C49.8576 232.228 76.4084 244.612 118.65 257.142C134.919 261.968 164.311 266.806 175.046 264.541C212.172 256.709 265.46 216.156 285.9 181.249C288.148 177.41 289.378 174.036 291.718 166.201C292.905 162.225 293.459 160.466 294.248 158.301L296.127 158.986C295.356 161.101 294.81 162.836 293.634 166.773C291.248 174.762 289.982 178.236 287.626 182.259C266.91 217.638 213.156 258.545 175.459 266.498C164.288 268.855 134.664 263.979 118.081 259.06C75.5591 246.446 48.7613 233.947 29.9311 215.936C7.94272 194.904 -1.90402 166.541 0.449418 126.978C1.99004 101.078 23.0122 66.5058 45.9529 48.9729C76.1392 25.9023 92.897 16.9035 121.111 10.0204C129.351 8.01016 138 6.23662 148.593 4.31845C153.045 3.51227 156.62 2.89072 164.626 1.51845C165.553 1.35963 165.966 1.28876 166.479 1.20072C169.908 0.612675 172.478 0.452943 174.972 0.830415C202.463 4.99065 219.955 9.95545 233.211 18.982C250.039 30.4407 257.34 47.7144 253.892 72.6656C253.822 73.168 253.752 73.6806 253.657 74.3704C253.542 75.216 253.479 75.6704 253.425 76.0626C253.337 76.705 253.263 77.2425 253.192 77.7577C251.475 90.1226 250.04 97.2963 247.397 104.703C244.887 111.738 240.775 118.501 234.777 126.142C228.59 134.024 214.049 144.054 199.747 149.981C182.511 157.125 167.933 157.715 159.666 149.779Z" fill="black"/>
</svg>
