<svg width="375" height="352" viewBox="0 0 375 352" fill="none" xmlns="http://www.w3.org/2000/svg">
<rect width="375" height="352" fill="#E29F72"/>
<mask id="mask0_0_763" style="mask-type:luminance" maskUnits="userSpaceOnUse" x="0" y="0" width="375" height="352">
<rect width="375" height="352" fill="white"/>
</mask>
<g mask="url(#mask0_0_763)">
<rect x="945.256" y="-628.146" width="871" height="1337" rx="80" transform="rotate(45 945.256 -628.146)" fill="#D58E5E"/>
<circle cx="390" cy="266" r="61" fill="#E3E2CD"/>
<mask id="mask1_0_763" style="mask-type:luminance" maskUnits="userSpaceOnUse" x="-352" y="34" width="400" height="400">
<circle cx="-152" cy="234" r="200" fill="white"/>
</mask>
<g mask="url(#mask1_0_763)">
<path d="M-251.982 -173.5L-251.275 -174.207L-251.981 -174.914L-252.689 -174.208L-251.982 -173.5ZM-251.276 -172.793L-250.568 -173.499L-251.276 -172.793ZM-253.398 -172.087L-254.104 -172.794L-254.812 -172.088L-254.105 -171.38L-253.398 -172.087ZM-252.691 -171.379L-251.983 -172.086L-251.983 -172.086L-252.691 -171.379ZM271.275 353.294L271.983 352.587L271.275 353.294ZM271.982 354.002L271.274 354.708L271.981 355.416L272.689 354.709L271.982 354.002ZM273.397 352.588L274.104 353.296L274.811 352.589L274.105 351.882L273.397 352.588ZM272.69 351.881L271.983 352.587L272.69 351.881ZM-268.953 -156.53L-268.245 -157.236L-268.952 -157.944L-269.66 -157.237L-268.953 -156.53ZM-268.246 -155.822L-267.539 -156.529L-267.539 -156.529L-268.246 -155.822ZM-270.368 -155.116L-271.075 -155.824L-271.782 -155.117L-271.076 -154.41L-270.368 -155.116ZM-269.661 -154.409L-270.369 -153.702L-270.369 -153.702L-269.661 -154.409ZM254.305 370.264L253.597 370.971L254.305 370.264ZM255.011 370.972L254.304 371.679L255.01 372.386L255.718 371.68L255.011 370.972ZM256.426 369.559L257.133 370.266L257.841 369.56L257.134 368.852L256.426 369.559ZM255.72 368.851L256.427 368.145L255.72 368.851ZM-285.217 -138.851L-285.924 -138.145L-285.924 -138.145L-285.217 -138.851ZM-285.923 -139.559L-285.216 -140.266L-285.923 -140.973L-286.63 -140.267L-285.923 -139.559ZM238.749 385.822L239.457 385.115L238.749 385.822ZM239.456 386.529L240.163 387.237L240.87 386.53L240.163 385.823L239.456 386.529ZM238.041 387.943L237.333 388.649L238.04 389.357L238.747 388.65L238.041 387.943ZM237.334 387.235L238.042 386.528L237.334 387.235ZM-286.632 -137.438L-287.34 -136.732L-287.34 -136.732L-286.632 -137.438ZM-287.339 -138.146L-288.045 -138.853L-288.753 -138.147L-288.046 -137.439L-287.339 -138.146ZM-302.894 -122.588L-302.186 -123.295L-302.893 -124.003L-303.601 -123.296L-302.894 -122.588ZM-302.187 -121.881L-301.48 -122.587L-301.48 -122.587L-302.187 -121.881ZM-304.309 -121.175L-305.016 -121.883L-305.723 -121.176L-305.017 -120.469L-304.309 -121.175ZM-303.603 -120.468L-302.895 -121.174L-302.895 -121.174L-303.603 -120.468ZM220.364 404.206L219.656 404.912L220.364 404.206ZM221.07 404.913L220.363 405.62L221.069 406.327L221.777 405.621L221.07 404.913ZM222.485 403.5L223.192 404.208L223.9 403.501L223.193 402.793L222.485 403.5ZM221.779 402.792L221.071 403.499L221.779 402.792ZM-319.158 -104.91L-318.45 -105.617L-318.45 -105.617L-319.158 -104.91ZM-319.865 -105.618L-319.157 -106.325L-319.864 -107.032L-320.571 -106.325L-319.865 -105.618ZM204.808 419.763L204.101 420.47L204.808 419.763ZM205.515 420.471L206.221 421.178L206.929 420.471L206.222 419.764L205.515 420.471ZM204.1 421.884L203.392 422.59L204.099 423.298L204.806 422.591L204.1 421.884ZM203.393 421.176L202.685 421.883L203.393 421.176ZM-320.573 -103.497L-319.866 -104.204L-319.866 -104.204L-320.573 -103.497ZM-321.28 -104.205L-321.986 -104.912L-322.694 -104.206L-321.987 -103.498L-321.28 -104.205ZM-336.835 -88.6473L-336.128 -89.3539L-336.834 -90.0615L-337.542 -89.3549L-336.835 -88.6473ZM-336.129 -87.9397L-335.421 -88.6464L-335.421 -88.6464L-336.129 -87.9397ZM-338.25 -87.2341L-338.957 -87.9416L-339.665 -87.235L-338.958 -86.5274L-338.25 -87.2341ZM-337.544 -86.5265L-336.836 -87.2331L-336.836 -87.2331L-337.544 -86.5265ZM186.422 438.147L185.715 438.853L186.422 438.147ZM187.129 438.854L186.421 439.561L187.128 440.269L187.836 439.562L187.129 438.854ZM188.544 437.441L189.251 438.149L189.958 437.442L189.252 436.734L188.544 437.441ZM187.838 436.733L187.13 437.44L187.838 436.733ZM-353.099 -70.9692L-352.392 -71.6758L-352.392 -71.6758L-353.099 -70.9692ZM-353.806 -71.6768L-353.098 -72.3834L-353.805 -73.091L-354.512 -72.3843L-353.806 -71.6768ZM170.867 453.704L170.159 454.411L170.867 453.704ZM171.574 454.412L172.28 455.119L172.988 454.413L172.281 453.705L171.574 454.412ZM170.158 455.825L169.451 456.532L170.158 457.239L170.865 456.532L170.158 455.825ZM169.452 455.117L168.744 455.824L169.452 455.117ZM-354.514 -69.5559L-353.807 -70.2625L-353.807 -70.2625L-354.514 -69.5559ZM-355.221 -70.2635L-355.928 -70.9711L-356.635 -70.2644L-355.928 -69.5569L-355.221 -70.2635ZM-370.776 -54.7062L-370.069 -55.4128L-370.775 -56.1204L-371.483 -55.4138L-370.776 -54.7062ZM-370.07 -53.9986L-369.362 -54.7052L-369.362 -54.7052L-370.07 -53.9986ZM-372.191 -53.2929L-372.898 -54.0005L-373.606 -53.2939L-372.899 -52.5863L-372.191 -53.2929ZM-371.485 -52.5854L-370.777 -53.292L-370.777 -53.292L-371.485 -52.5854ZM152.481 472.088L151.774 472.795L152.481 472.088ZM153.188 472.795L152.48 473.502L153.187 474.21L153.895 473.503L153.188 472.795ZM154.603 471.382L155.31 472.09L156.017 471.383L155.311 470.676L154.603 471.382ZM153.896 470.675L153.189 471.381L153.896 470.675ZM-387.04 -37.028L-386.333 -37.7347L-386.333 -37.7347L-387.04 -37.028ZM-387.747 -37.7356L-387.039 -38.4423L-387.746 -39.1498L-388.453 -38.4432L-387.747 -37.7356ZM136.926 487.645L136.218 488.352L136.926 487.645ZM137.633 488.353L138.339 489.06L139.047 488.354L138.34 487.646L137.633 488.353ZM136.217 489.766L135.51 490.473L136.216 491.18L136.924 490.474L136.217 489.766ZM135.511 489.058L134.803 489.765L135.511 489.058ZM-388.455 -35.6148L-387.748 -36.3214L-387.748 -36.3214L-388.455 -35.6148ZM-389.162 -36.3224L-389.869 -37.03L-390.576 -36.3233L-389.87 -35.6157L-389.162 -36.3224ZM-404.717 -20.7651L-404.01 -21.4717L-404.716 -22.1793L-405.424 -21.4726L-404.717 -20.7651ZM-404.011 -20.0575L-403.303 -20.7641L-403.303 -20.7641L-404.011 -20.0575ZM-406.133 -19.3518L-406.839 -20.0594L-407.547 -19.3528L-406.84 -18.6452L-406.133 -19.3518ZM-405.426 -18.6442L-404.718 -19.3509L-404.718 -19.3509L-405.426 -18.6442ZM118.54 506.029L117.833 506.736L118.54 506.029ZM119.247 506.737L118.539 507.443L119.246 508.151L119.953 507.444L119.247 506.737ZM120.662 505.323L121.369 506.031L122.076 505.324L121.37 504.617L120.662 505.323ZM119.955 504.616L119.248 505.322L119.955 504.616ZM-420.981 -3.08692L-420.274 -3.79355L-420.274 -3.79356L-420.981 -3.08692ZM-421.688 -3.79451L-420.98 -4.50114L-421.687 -5.20872L-422.395 -4.50209L-421.688 -3.79451ZM102.985 521.586L102.277 522.293L102.985 521.586ZM103.691 522.294L104.398 523.001L105.106 522.295L104.399 521.587L103.691 522.294ZM102.276 523.707L101.569 524.414L102.275 525.121L102.983 524.415L102.276 523.707ZM101.57 523L100.862 523.706L101.57 523ZM-422.397 -1.67366L-421.689 -2.38029L-421.689 -2.3803L-422.397 -1.67366ZM-423.103 -2.38125L-423.81 -3.08883L-424.517 -2.3822L-423.811 -1.67461L-423.103 -2.38125ZM-438.659 13.1761L-437.951 12.4694L-438.658 11.7618L-439.365 12.4685L-438.659 13.1761ZM-437.952 13.8836L-437.244 13.177L-437.244 13.177L-437.952 13.8836ZM-440.074 14.5893L-440.78 13.8817L-441.488 14.5884L-440.781 15.2959L-440.074 14.5893ZM-439.367 15.2969L-438.659 14.5903L-438.659 14.5903L-439.367 15.2969ZM84.5991 539.97L83.8915 540.677L84.5991 539.97ZM85.3057 540.678L84.5981 541.384L85.3047 542.092L86.0123 541.385L85.3057 540.678ZM86.7208 539.264L87.4275 539.972L88.1351 539.265L87.4284 538.558L86.7208 539.264ZM86.0142 538.557L85.3066 539.263L86.0142 538.557ZM-454.922 30.8542L-454.215 30.1476L-454.215 30.1476L-454.922 30.8542ZM-455.629 30.1466L-454.922 29.44L-455.628 28.7324L-456.336 29.439L-455.629 30.1466ZM69.0437 555.527L68.3361 556.234L69.0437 555.527ZM69.7503 556.235L70.4569 556.943L71.1645 556.236L70.4579 555.528L69.7503 556.235ZM68.3351 557.648L67.6275 558.355L68.3342 559.062L69.0418 558.356L68.3351 557.648ZM67.6285 556.941L66.9209 557.647L67.6285 556.941ZM-456.338 32.2675L-455.63 31.5608L-455.63 31.5608L-456.338 32.2675ZM-457.044 31.5599L-457.751 30.8523L-458.458 31.5589L-457.752 32.2665L-457.044 31.5599ZM-472.6 47.1172L-471.892 46.4106L-472.599 45.703L-473.306 46.4096L-472.6 47.1172ZM-471.893 47.8248L-471.185 47.1181L-471.185 47.1181L-471.893 47.8248ZM-474.015 48.5304L-474.721 47.8229L-475.429 48.5295L-474.722 49.2371L-474.015 48.5304ZM-473.308 49.238L-472.601 48.5314L-472.601 48.5314L-473.308 49.238ZM50.6579 573.911L49.9503 574.618L50.6579 573.911ZM51.3646 574.619L50.657 575.325L51.3636 576.033L52.0712 575.326L51.3646 574.619ZM52.7797 573.206L53.4864 573.913L54.1939 573.207L53.4873 572.499L52.7797 573.206ZM52.0731 572.498L51.3655 573.205L52.0731 572.498ZM-488.864 64.7953L-488.156 64.0887L-488.156 64.0887L-488.864 64.7953ZM-489.57 64.0877L-488.863 63.3811L-489.569 62.6735L-490.277 63.3802L-489.57 64.0877ZM35.1025 589.469L34.3949 590.175L35.1025 589.469ZM35.8092 590.176L36.5158 590.884L37.2234 590.177L36.5167 589.469L35.8092 590.176ZM34.394 591.589L33.6864 592.296L34.393 593.004L35.1006 592.297L34.394 591.589ZM33.6874 590.882L32.9798 591.588L33.6874 590.882ZM-490.279 66.2086L-489.571 65.502L-489.571 65.502L-490.279 66.2086ZM-490.985 65.501L-491.692 64.7934L-492.4 65.5001L-491.693 66.2076L-490.985 65.501ZM-506.541 81.0583L-505.833 80.3517L-506.54 79.6441L-507.247 80.3507L-506.541 81.0583ZM-505.834 81.7659L-505.127 81.0593L-505.127 81.0593L-505.834 81.7659ZM-507.956 82.4716L-508.663 81.764L-509.37 82.4706L-508.664 83.1782L-507.956 82.4716ZM-507.249 83.1791L-506.542 82.4725L-506.542 82.4725L-507.249 83.1791ZM16.7168 607.852L16.0092 608.559L16.7168 607.852ZM17.4234 608.56L16.7159 609.267L17.4225 609.974L18.1301 609.268L17.4234 608.56ZM18.8386 607.147L19.5452 607.854L20.2528 607.148L19.5462 606.44L18.8386 607.147ZM18.132 606.439L17.4244 607.146L18.132 606.439ZM-522.805 98.7365L-522.097 98.0298L-522.097 98.0298L-522.805 98.7365ZM-523.511 98.0289L-522.804 97.3222L-523.51 96.6147L-524.218 97.3213L-523.511 98.0289ZM1.1614 623.41L0.453821 624.116L1.1614 623.41ZM1.86803 624.117L2.57467 624.825L3.28225 624.118L2.57562 623.411L1.86803 624.117ZM0.452872 625.531L-0.25471 626.237L0.451922 626.945L1.1595 626.238L0.452872 625.531ZM-0.25376 624.823L-0.961342 625.53L-0.25376 624.823ZM-524.22 100.15L-523.512 99.4431L-523.512 99.4431L-524.22 100.15ZM-524.927 99.4421L-525.633 98.7345L-526.341 99.4412L-525.634 100.149L-524.927 99.4421ZM-540.482 114.999L-539.774 114.293L-540.481 113.585L-541.189 114.292L-540.482 114.999ZM-539.775 115.707L-539.068 115L-539.068 115L-539.775 115.707ZM-541.897 116.413L-542.604 115.705L-543.311 116.412L-542.605 117.119L-541.897 116.413ZM-541.19 117.12L-540.483 116.414L-540.483 116.414L-541.19 117.12ZM-17.2243 641.793L-17.9319 642.5L-17.2243 641.793ZM-16.5177 642.501L-17.2253 643.208L-16.5186 643.915L-15.8111 643.209L-16.5177 642.501ZM-15.1025 641.088L-14.3959 641.795L-13.6883 641.089L-14.3949 640.381L-15.1025 641.088ZM-15.8092 640.38L-16.5167 641.087L-15.8092 640.38ZM-252.69 -172.794L-251.983 -172.086L-250.568 -173.499L-251.275 -174.207L-252.69 -172.794ZM-252.691 -171.379L-251.276 -172.793L-252.689 -174.208L-254.104 -172.794L-252.691 -171.379ZM-251.983 -172.086L-252.69 -172.794L-254.105 -171.38L-253.398 -170.673L-251.983 -172.086ZM271.983 352.587L-251.983 -172.086L-253.398 -170.673L270.568 354.001L271.983 352.587ZM272.689 353.295L271.983 352.587L270.568 354.001L271.274 354.708L272.689 353.295ZM272.69 351.881L271.275 353.294L272.689 354.709L274.104 353.296L272.69 351.881ZM271.983 352.587L272.689 353.295L274.105 351.882L273.398 351.174L271.983 352.587ZM-251.983 -172.086L271.983 352.587L273.398 351.174L-250.568 -173.499L-251.983 -172.086ZM-269.66 -155.823L-268.954 -155.115L-267.539 -156.529L-268.245 -157.236L-269.66 -155.823ZM-269.661 -154.409L-268.246 -155.822L-269.66 -157.237L-271.075 -155.824L-269.661 -154.409ZM-268.954 -155.115L-269.66 -155.823L-271.076 -154.41L-270.369 -153.702L-268.954 -155.115ZM255.012 369.558L-268.954 -155.115L-270.369 -153.702L253.597 370.971L255.012 369.558ZM255.719 370.265L255.012 369.558L253.597 370.971L254.304 371.679L255.719 370.265ZM255.72 368.851L254.305 370.264L255.718 371.68L257.133 370.266L255.72 368.851ZM255.012 369.558L255.719 370.265L257.134 368.852L256.427 368.145L255.012 369.558ZM-268.954 -155.115L255.012 369.558L256.427 368.145L-267.539 -156.529L-268.954 -155.115ZM-284.509 -139.558L-285.216 -140.266L-286.631 -138.852L-285.924 -138.145L-284.509 -139.558ZM239.457 385.115L-284.509 -139.558L-285.924 -138.145L238.042 386.528L239.457 385.115ZM240.163 385.823L239.457 385.115L238.042 386.528L238.748 387.236L240.163 385.823ZM238.747 388.65L240.163 387.237L238.749 385.822L237.334 387.235L238.747 388.65ZM236.627 387.942L237.333 388.649L238.748 387.236L238.042 386.528L236.627 387.942ZM-287.34 -136.732L236.627 387.942L238.042 386.528L-285.924 -138.145L-287.34 -136.732ZM-288.046 -137.439L-287.34 -136.732L-285.924 -138.145L-286.631 -138.852L-288.046 -137.439ZM-286.63 -140.267L-288.045 -138.853L-286.632 -137.438L-285.217 -138.851L-286.63 -140.267ZM-303.602 -121.882L-302.895 -121.174L-301.48 -122.587L-302.186 -123.295L-303.602 -121.882ZM-303.603 -120.468L-302.187 -121.881L-303.601 -123.296L-305.016 -121.883L-303.603 -120.468ZM-302.895 -121.174L-303.602 -121.882L-305.017 -120.469L-304.31 -119.761L-302.895 -121.174ZM221.071 403.499L-302.895 -121.174L-304.31 -119.761L219.656 404.912L221.071 403.499ZM221.778 404.207L221.071 403.499L219.656 404.912L220.363 405.62L221.778 404.207ZM221.779 402.792L220.364 404.206L221.777 405.621L223.192 404.208L221.779 402.792ZM221.071 403.499L221.778 404.207L223.193 402.793L222.486 402.086L221.071 403.499ZM-302.895 -121.174L221.071 403.499L222.486 402.086L-301.48 -122.587L-302.895 -121.174ZM-318.45 -105.617L-319.157 -106.325L-320.572 -104.911L-319.866 -104.204L-318.45 -105.617ZM205.516 419.056L-318.45 -105.617L-319.866 -104.204L204.101 420.47L205.516 419.056ZM206.222 419.764L205.516 419.056L204.101 420.47L204.807 421.177L206.222 419.764ZM204.806 422.591L206.221 421.178L204.808 419.763L203.393 421.176L204.806 422.591ZM202.685 421.883L203.392 422.59L204.807 421.177L204.101 420.47L202.685 421.883ZM-321.281 -102.79L202.685 421.883L204.101 420.47L-319.866 -104.204L-321.281 -102.79ZM-321.987 -103.498L-321.281 -102.79L-319.866 -104.204L-320.572 -104.911L-321.987 -103.498ZM-320.571 -106.325L-321.986 -104.912L-320.573 -103.497L-319.158 -104.91L-320.571 -106.325ZM-337.543 -87.9407L-336.836 -87.2331L-335.421 -88.6464L-336.128 -89.3539L-337.543 -87.9407ZM-337.544 -86.5265L-336.129 -87.9397L-337.542 -89.3549L-338.957 -87.9416L-337.544 -86.5265ZM-336.836 -87.2331L-337.543 -87.9407L-338.958 -86.5274L-338.251 -85.8198L-336.836 -87.2331ZM187.13 437.44L-336.836 -87.2331L-338.251 -85.8198L185.715 438.853L187.13 437.44ZM187.837 438.148L187.13 437.44L185.715 438.853L186.421 439.561L187.837 438.148ZM187.838 436.733L186.422 438.147L187.836 439.562L189.251 438.149L187.838 436.733ZM187.13 437.44L187.837 438.148L189.252 436.734L188.545 436.027L187.13 437.44ZM-336.836 -87.2331L187.13 437.44L188.545 436.027L-335.421 -88.6464L-336.836 -87.2331ZM-352.392 -71.6758L-353.098 -72.3834L-354.513 -70.9701L-353.807 -70.2625L-352.392 -71.6758ZM171.575 452.997L-352.392 -71.6758L-353.807 -70.2625L170.159 454.411L171.575 452.997ZM172.281 453.705L171.575 452.997L170.159 454.411L170.866 455.118L172.281 453.705ZM170.865 456.532L172.28 455.119L170.867 453.704L169.452 455.117L170.865 456.532ZM168.744 455.824L169.451 456.532L170.866 455.118L170.159 454.411L168.744 455.824ZM-355.222 -68.8493L168.744 455.824L170.159 454.411L-353.807 -70.2625L-355.222 -68.8493ZM-355.928 -69.5569L-355.222 -68.8493L-353.807 -70.2625L-354.513 -70.9701L-355.928 -69.5569ZM-354.512 -72.3843L-355.928 -70.9711L-354.514 -69.5559L-353.099 -70.9692L-354.512 -72.3843ZM-371.484 -53.9996L-370.777 -53.292L-369.362 -54.7052L-370.069 -55.4128L-371.484 -53.9996ZM-371.485 -52.5854L-370.07 -53.9986L-371.483 -55.4138L-372.898 -54.0005L-371.485 -52.5854ZM-370.777 -53.292L-371.484 -53.9996L-372.899 -52.5863L-372.192 -51.8787L-370.777 -53.292ZM153.189 471.381L-370.777 -53.292L-372.192 -51.8787L151.774 472.795L153.189 471.381ZM153.896 472.089L153.189 471.381L151.774 472.795L152.48 473.502L153.896 472.089ZM153.896 470.675L152.481 472.088L153.895 473.503L155.31 472.09L153.896 470.675ZM153.189 471.381L153.896 472.089L155.311 470.676L154.604 469.968L153.189 471.381ZM-370.777 -53.292L153.189 471.381L154.604 469.968L-369.362 -54.7052L-370.777 -53.292ZM-386.333 -37.7347L-387.039 -38.4423L-388.454 -37.029L-387.748 -36.3214L-386.333 -37.7347ZM137.633 486.939L-386.333 -37.7347L-387.748 -36.3214L136.218 488.352L137.633 486.939ZM138.34 487.646L137.633 486.939L136.218 488.352L136.925 489.059L138.34 487.646ZM136.924 490.474L138.339 489.06L136.926 487.645L135.511 489.058L136.924 490.474ZM134.803 489.765L135.51 490.473L136.925 489.059L136.218 488.352L134.803 489.765ZM-389.163 -34.9082L134.803 489.765L136.218 488.352L-387.748 -36.3214L-389.163 -34.9082ZM-389.87 -35.6157L-389.163 -34.9082L-387.748 -36.3214L-388.454 -37.029L-389.87 -35.6157ZM-388.453 -38.4432L-389.869 -37.03L-388.455 -35.6148L-387.04 -37.028L-388.453 -38.4432ZM-405.425 -20.0584L-404.718 -19.3509L-403.303 -20.7641L-404.01 -21.4717L-405.425 -20.0584ZM-405.426 -18.6442L-404.011 -20.0575L-405.424 -21.4726L-406.839 -20.0594L-405.426 -18.6442ZM-404.718 -19.3509L-405.425 -20.0584L-406.84 -18.6452L-406.134 -17.9376L-404.718 -19.3509ZM119.248 505.322L-404.718 -19.3509L-406.134 -17.9376L117.833 506.736L119.248 505.322ZM119.954 506.03L119.248 505.322L117.833 506.736L118.539 507.443L119.954 506.03ZM119.955 504.616L118.54 506.029L119.953 507.444L121.369 506.031L119.955 504.616ZM119.248 505.322L119.954 506.03L121.37 504.617L120.663 503.909L119.248 505.322ZM-404.718 -19.3509L119.248 505.322L120.663 503.909L-403.303 -20.7641L-404.718 -19.3509ZM-420.274 -3.79356L-420.98 -4.50114L-422.396 -3.08787L-421.689 -2.38029L-420.274 -3.79356ZM103.692 520.88L-420.274 -3.79355L-421.689 -2.38029L102.277 522.293L103.692 520.88ZM104.399 521.587L103.692 520.88L102.277 522.293L102.984 523.001L104.399 521.587ZM102.983 524.415L104.398 523.001L102.985 521.586L101.57 523L102.983 524.415ZM100.862 523.706L101.569 524.414L102.984 523.001L102.277 522.293L100.862 523.706ZM-423.104 -0.967034L100.862 523.706L102.277 522.293L-421.689 -2.38029L-423.104 -0.967034ZM-423.811 -1.67461L-423.104 -0.967032L-421.689 -2.3803L-422.396 -3.08788L-423.811 -1.67461ZM-422.395 -4.50209L-423.81 -3.08883L-422.397 -1.67366L-420.981 -3.08692L-422.395 -4.50209ZM-439.366 13.8827L-438.659 14.5903L-437.244 13.177L-437.951 12.4694L-439.366 13.8827ZM-439.367 15.2969L-437.952 13.8836L-439.365 12.4685L-440.78 13.8817L-439.367 15.2969ZM-438.659 14.5903L-439.366 13.8827L-440.781 15.2959L-440.075 16.0035L-438.659 14.5903ZM85.3066 539.263L-438.659 14.5903L-440.075 16.0035L83.8915 540.677L85.3066 539.263ZM86.0133 539.971L85.3066 539.263L83.8915 540.677L84.5981 541.384L86.0133 539.971ZM86.0142 538.557L84.5991 539.97L86.0123 541.385L87.4275 539.972L86.0142 538.557ZM85.3066 539.263L86.0133 539.971L87.4284 538.558L86.7218 537.85L85.3066 539.263ZM-438.659 14.5903L85.3066 539.263L86.7218 537.85L-437.244 13.177L-438.659 14.5903ZM-454.215 30.1476L-454.922 29.44L-456.337 30.8533L-455.63 31.5608L-454.215 30.1476ZM69.7512 554.821L-454.215 30.1476L-455.63 31.5608L68.3361 556.234L69.7512 554.821ZM70.4579 555.528L69.7512 554.821L68.3361 556.234L69.0427 556.942L70.4579 555.528ZM69.0418 558.356L70.4569 556.943L69.0437 555.527L67.6285 556.941L69.0418 558.356ZM66.9209 557.647L67.6275 558.355L69.0427 556.942L68.3361 556.234L66.9209 557.647ZM-457.045 32.9741L66.9209 557.647L68.3361 556.234L-455.63 31.5608L-457.045 32.9741ZM-457.752 32.2665L-457.045 32.9741L-455.63 31.5608L-456.337 30.8532L-457.752 32.2665ZM-456.336 29.439L-457.751 30.8523L-456.338 32.2675L-454.922 30.8542L-456.336 29.439ZM-473.307 47.8238L-472.601 48.5314L-471.185 47.1181L-471.892 46.4106L-473.307 47.8238ZM-473.308 49.238L-471.893 47.8248L-473.306 46.4096L-474.721 47.8229L-473.308 49.238ZM-472.601 48.5314L-473.307 47.8238L-474.722 49.2371L-474.016 49.9447L-472.601 48.5314ZM51.3655 573.205L-472.601 48.5314L-474.016 49.9447L49.9503 574.618L51.3655 573.205ZM52.0721 573.912L51.3655 573.205L49.9503 574.618L50.657 575.325L52.0721 573.912ZM52.0731 572.498L50.6579 573.911L52.0712 575.326L53.4864 573.913L52.0731 572.498ZM51.3655 573.205L52.0721 573.912L53.4873 572.499L52.7807 571.791L51.3655 573.205ZM-472.601 48.5314L51.3655 573.205L52.7807 571.791L-471.185 47.1181L-472.601 48.5314ZM-488.156 64.0887L-488.863 63.3811L-490.278 64.7944L-489.571 65.502L-488.156 64.0887ZM35.8101 588.762L-488.156 64.0887L-489.571 65.502L34.3949 590.175L35.8101 588.762ZM36.5167 589.469L35.8101 588.762L34.3949 590.175L35.1016 590.883L36.5167 589.469ZM35.1006 592.297L36.5158 590.884L35.1025 589.469L33.6874 590.882L35.1006 592.297ZM32.9798 591.588L33.6864 592.296L35.1016 590.883L34.3949 590.175L32.9798 591.588ZM-490.986 66.9152L32.9798 591.588L34.3949 590.175L-489.571 65.502L-490.986 66.9152ZM-491.693 66.2076L-490.986 66.9152L-489.571 65.502L-490.278 64.7944L-491.693 66.2076ZM-490.277 63.3802L-491.692 64.7934L-490.279 66.2086L-488.864 64.7953L-490.277 63.3802ZM-507.248 81.7649L-506.542 82.4725L-505.127 81.0593L-505.833 80.3517L-507.248 81.7649ZM-507.249 83.1791L-505.834 81.7659L-507.247 80.3507L-508.663 81.764L-507.249 83.1791ZM-506.542 82.4725L-507.248 81.7649L-508.664 83.1782L-507.957 83.8858L-506.542 82.4725ZM17.4244 607.146L-506.542 82.4725L-507.957 83.8858L16.0092 608.559L17.4244 607.146ZM18.131 607.853L17.4244 607.146L16.0092 608.559L16.7159 609.267L18.131 607.853ZM18.132 606.439L16.7168 607.852L18.1301 609.268L19.5452 607.854L18.132 606.439ZM17.4244 607.146L18.131 607.853L19.5462 606.44L18.8395 605.732L17.4244 607.146ZM-506.542 82.4725L17.4244 607.146L18.8395 605.732L-505.127 81.0593L-506.542 82.4725ZM-522.097 98.0298L-522.804 97.3222L-524.219 98.7355L-523.512 99.4431L-522.097 98.0298ZM1.86898 622.703L-522.097 98.0298L-523.512 99.4431L0.453821 624.116L1.86898 622.703ZM2.57562 623.411L1.86898 622.703L0.453821 624.116L1.16045 624.824L2.57562 623.411ZM1.1595 626.238L2.57467 624.825L1.1614 623.41L-0.25376 624.823L1.1595 626.238ZM-0.961342 625.53L-0.25471 626.237L1.16045 624.824L0.453821 624.116L-0.961342 625.53ZM-524.927 100.856L-0.961342 625.53L0.453821 624.116L-523.512 99.4431L-524.927 100.856ZM-525.634 100.149L-524.927 100.856L-523.512 99.4431L-524.219 98.7355L-525.634 100.149ZM-524.218 97.3213L-525.633 98.7345L-524.22 100.15L-522.805 98.7365L-524.218 97.3213ZM-541.189 115.706L-540.483 116.414L-539.068 115L-539.774 114.293L-541.189 115.706ZM-541.19 117.12L-539.775 115.707L-541.189 114.292L-542.604 115.705L-541.19 117.12ZM-540.483 116.414L-541.189 115.706L-542.605 117.119L-541.898 117.827L-540.483 116.414ZM-16.5167 641.087L-540.483 116.414L-541.898 117.827L-17.9319 642.5L-16.5167 641.087ZM-15.8101 641.794L-16.5167 641.087L-17.9319 642.5L-17.2253 643.208L-15.8101 641.794ZM-15.8092 640.38L-17.2243 641.793L-15.8111 643.209L-14.3959 641.795L-15.8092 640.38ZM-16.5167 641.087L-15.8101 641.794L-14.3949 640.381L-15.1016 639.674L-16.5167 641.087ZM-540.483 116.414L-16.5167 641.087L-15.1016 639.674L-539.068 115L-540.483 116.414Z" fill="black"/>
</g>
<circle cx="134" cy="351" r="114" fill="#E29F72"/>
</g>
</svg>
