<svg width="601" height="661" viewBox="0 0 601 661" fill="none" xmlns="http://www.w3.org/2000/svg">
<mask id="mask0_0_205" style="mask-type:luminance" maskUnits="userSpaceOnUse" x="0" y="258" width="400" height="400">
<circle cx="200" cy="458" r="200" fill="white"/>
</mask>
<g mask="url(#mask0_0_205)">
<path d="M100.018 50.4994L100.725 49.7928L100.019 49.0852L99.311 49.7918L100.018 50.4994ZM100.724 51.207L101.432 50.5003L100.724 51.207ZM98.6025 51.9126L97.8959 51.2051L97.1883 51.9117L97.8949 52.6193L98.6025 51.9126ZM99.3091 52.6202L100.017 51.9136L100.017 51.9136L99.3091 52.6202ZM623.275 577.293L623.983 576.587L623.275 577.293ZM623.982 578.001L623.274 578.708L623.981 579.415L624.689 578.709L623.982 578.001ZM625.397 576.588L626.104 577.295L626.811 576.589L626.105 575.881L625.397 576.588ZM624.69 575.88L623.983 576.587L624.69 575.88ZM83.0471 67.4699L83.7547 66.7633L83.048 66.0557L82.3405 66.7624L83.0471 67.4699ZM83.7537 68.1775L84.4613 67.4709L84.4613 67.4709L83.7537 68.1775ZM81.6319 68.8832L80.9253 68.1756L80.2177 68.8822L80.9243 69.5898L81.6319 68.8832ZM82.3386 69.5908L81.631 70.2974L81.631 70.2974L82.3386 69.5908ZM606.305 594.264L605.597 594.971L606.305 594.264ZM607.011 594.972L606.304 595.678L607.01 596.386L607.718 595.679L607.011 594.972ZM608.426 593.558L609.133 594.266L609.841 593.559L609.134 592.852L608.426 593.558ZM607.72 592.851L608.427 592.144L607.72 592.851ZM66.7832 85.1481L66.0756 85.8547L66.0756 85.8547L66.7832 85.1481ZM66.0765 84.4405L66.7841 83.7339L66.0775 83.0263L65.3699 83.7329L66.0765 84.4405ZM590.749 609.821L591.457 609.115L590.749 609.821ZM591.456 610.529L592.163 611.236L592.87 610.53L592.163 609.822L591.456 610.529ZM590.041 611.942L589.333 612.649L590.04 613.356L590.747 612.65L590.041 611.942ZM589.334 611.235L590.042 610.528L589.334 611.235ZM65.368 86.5613L64.6604 87.268L64.6604 87.268L65.368 86.5613ZM64.6614 85.8538L63.9547 85.1462L63.2472 85.8528L63.9538 86.5604L64.6614 85.8538ZM49.106 101.411L49.8136 100.704L49.1069 99.9969L48.3993 100.703L49.106 101.411ZM49.8126 102.119L50.5202 101.412L50.5202 101.412L49.8126 102.119ZM47.6908 102.824L46.9842 102.117L46.2766 102.823L46.9832 103.531L47.6908 102.824ZM48.3974 103.532L49.105 102.825L49.105 102.825L48.3974 103.532ZM572.364 628.205L571.656 628.912L572.364 628.205ZM573.07 628.913L572.363 629.619L573.069 630.327L573.777 629.62L573.07 628.913ZM574.485 627.499L575.192 628.207L575.9 627.5L575.193 626.793L574.485 627.499ZM573.779 626.792L573.071 627.499L573.779 626.792ZM32.842 119.089L33.5496 118.383L33.5496 118.383L32.842 119.089ZM32.1354 118.382L32.843 117.675L32.1364 116.967L31.4288 117.674L32.1354 118.382ZM556.808 643.762L556.101 644.469L556.808 643.762ZM557.515 644.47L558.221 645.178L558.929 644.471L558.222 643.763L557.515 644.47ZM556.1 645.883L555.392 646.59L556.099 647.297L556.806 646.591L556.1 645.883ZM555.393 645.176L554.685 645.882L555.393 645.176ZM31.4269 120.502L32.1345 119.796L32.1345 119.796L31.4269 120.502ZM30.7202 119.795L30.0136 119.087L29.306 119.794L30.0127 120.502L30.7202 119.795ZM15.1648 135.352L15.8724 134.646L15.1658 133.938L14.4582 134.645L15.1648 135.352ZM15.8715 136.06L16.5791 135.353L16.5791 135.353L15.8715 136.06ZM13.7497 136.765L13.043 136.058L12.3355 136.765L13.0421 137.472L13.7497 136.765ZM14.4563 137.473L15.1639 136.766L15.1639 136.766L14.4563 137.473ZM538.422 662.146L537.715 662.853L538.422 662.146ZM539.129 662.854L538.421 663.56L539.128 664.268L539.836 663.561L539.129 662.854ZM540.544 661.441L541.251 662.148L541.958 661.442L541.252 660.734L540.544 661.441ZM539.838 660.733L539.13 661.44L539.838 660.733ZM-1.09909 153.03L-0.391503 152.324L-0.391505 152.324L-1.09909 153.03ZM-1.80572 152.323L-1.09814 151.616L-1.80477 150.909L-2.51235 151.615L-1.80572 152.323ZM522.867 677.704L522.159 678.41L522.867 677.704ZM523.574 678.411L524.28 679.119L524.988 678.412L524.281 677.705L523.574 678.411ZM522.158 679.824L521.451 680.531L522.158 681.239L522.865 680.532L522.158 679.824ZM521.452 679.117L520.744 679.823L521.452 679.117ZM-2.51425 154.444L-1.80667 153.737L-1.80667 153.737L-2.51425 154.444ZM-3.22089 153.736L-3.92752 153.028L-4.6351 153.735L-3.92847 154.443L-3.22089 153.736ZM-18.7763 169.293L-18.0687 168.587L-18.7753 167.879L-19.4829 168.586L-18.7763 169.293ZM-18.0696 170.001L-17.3621 169.294L-17.3621 169.294L-18.0696 170.001ZM-20.1914 170.707L-20.8981 169.999L-21.6057 170.706L-20.899 171.413L-20.1914 170.707ZM-19.4848 171.414L-18.7772 170.708L-18.7772 170.708L-19.4848 171.414ZM504.481 696.087L503.774 696.794L504.481 696.087ZM505.188 696.795L504.48 697.502L505.187 698.209L505.895 697.503L505.188 696.795ZM506.603 695.382L507.31 696.089L508.017 695.383L507.311 694.675L506.603 695.382ZM505.896 694.674L505.189 695.381L505.896 694.674ZM-35.0402 186.971L-34.3326 186.265L-34.3326 186.265L-35.0402 186.971ZM-35.7468 186.264L-35.0393 185.557L-35.7459 184.85L-36.4535 185.556L-35.7468 186.264ZM488.926 711.645L488.218 712.351L488.926 711.645ZM489.633 712.352L490.339 713.06L491.047 712.353L490.34 711.646L489.633 712.352ZM488.217 713.766L487.51 714.472L488.216 715.18L488.924 714.473L488.217 713.766ZM487.511 713.058L486.803 713.765L487.511 713.058ZM-36.4554 188.385L-35.7478 187.678L-35.7478 187.678L-36.4554 188.385ZM-37.162 187.677L-37.8686 186.97L-38.5762 187.676L-37.8696 188.384L-37.162 187.677ZM-52.7174 203.234L-52.0098 202.528L-52.7165 201.82L-53.424 202.527L-52.7174 203.234ZM-52.0108 203.942L-51.3032 203.235L-51.3032 203.235L-52.0108 203.942ZM-54.1326 204.648L-54.8392 203.94L-55.5468 204.647L-54.8402 205.354L-54.1326 204.648ZM-53.4259 205.355L-52.7184 204.649L-52.7184 204.649L-53.4259 205.355ZM470.54 730.029L469.833 730.735L470.54 730.029ZM471.247 730.736L470.539 731.443L471.246 732.15L471.953 731.444L471.247 730.736ZM472.662 729.323L473.369 730.03L474.076 729.324L473.37 728.616L472.662 729.323ZM471.955 728.615L471.248 729.322L471.955 728.615ZM-68.9813 220.913L-68.2738 220.206L-68.2738 220.206L-68.9813 220.913ZM-69.688 220.205L-68.9804 219.498L-69.687 218.791L-70.3946 219.497L-69.688 220.205ZM454.985 745.586L454.277 746.292L454.985 745.586ZM455.691 746.293L456.398 747.001L457.106 746.294L456.399 745.587L455.691 746.293ZM454.276 747.707L453.569 748.413L454.275 749.121L454.983 748.414L454.276 747.707ZM453.57 746.999L452.862 747.706L453.57 746.999ZM-70.3965 222.326L-69.6889 221.619L-69.6889 221.619L-70.3965 222.326ZM-71.1031 221.618L-71.8098 220.911L-72.5174 221.617L-71.8107 222.325L-71.1031 221.618ZM-86.6585 237.176L-85.9509 236.469L-86.6576 235.761L-87.3652 236.468L-86.6585 237.176ZM-85.9519 237.883L-85.2443 237.177L-85.2443 237.177L-85.9519 237.883ZM-88.0737 238.589L-88.7803 237.881L-89.4879 238.588L-88.7813 239.295L-88.0737 238.589ZM-87.3671 239.296L-86.6595 238.59L-86.6595 238.59L-87.3671 239.296ZM436.599 763.97L435.891 764.676L436.599 763.97ZM437.306 764.677L436.598 765.384L437.305 766.091L438.012 765.385L437.306 764.677ZM438.721 763.264L439.427 763.972L440.135 763.265L439.428 762.557L438.721 763.264ZM438.014 762.556L437.307 763.263L438.014 762.556ZM-102.922 254.854L-102.215 254.147L-102.215 254.147L-102.922 254.854ZM-103.629 254.146L-102.922 253.439L-103.628 252.732L-104.336 253.439L-103.629 254.146ZM421.044 779.527L420.336 780.234L421.044 779.527ZM421.75 780.235L422.457 780.942L423.164 780.235L422.458 779.528L421.75 780.235ZM420.335 781.648L419.628 782.354L420.334 783.062L421.042 782.355L420.335 781.648ZM419.628 780.94L418.921 781.647L419.628 780.94ZM-104.338 256.267L-103.63 255.56L-103.63 255.56L-104.338 256.267ZM-105.044 255.559L-105.751 254.852L-106.458 255.558L-105.752 256.266L-105.044 255.559ZM-120.6 271.117L-119.892 270.41L-120.599 269.702L-121.306 270.409L-120.6 271.117ZM-119.893 271.824L-119.185 271.118L-119.185 271.118L-119.893 271.824ZM-122.015 272.53L-122.721 271.822L-123.429 272.529L-122.722 273.237L-122.015 272.53ZM-121.308 273.238L-120.601 272.531L-120.601 272.531L-121.308 273.238ZM402.658 797.911L401.95 798.617L402.658 797.911ZM403.365 798.618L402.657 799.325L403.364 800.033L404.071 799.326L403.365 798.618ZM404.78 797.205L405.486 797.913L406.194 797.206L405.487 796.498L404.78 797.205ZM404.073 796.497L403.366 797.204L404.073 796.497ZM-136.864 288.795L-136.156 288.088L-136.156 288.088L-136.864 288.795ZM-137.57 288.087L-136.863 287.381L-137.569 286.673L-138.277 287.38L-137.57 288.087ZM387.103 813.468L386.395 814.175L387.103 813.468ZM387.809 814.176L388.516 814.883L389.223 814.177L388.517 813.469L387.809 814.176ZM386.394 815.589L385.686 816.296L386.393 817.003L387.101 816.296L386.394 815.589ZM385.687 814.881L384.98 815.588L385.687 814.881ZM-138.279 290.208L-137.571 289.501L-137.571 289.501L-138.279 290.208ZM-138.985 289.501L-139.692 288.793L-140.4 289.5L-139.693 290.207L-138.985 289.501ZM-154.541 305.058L-153.833 304.351L-154.54 303.644L-155.247 304.35L-154.541 305.058ZM-153.834 305.765L-153.127 305.059L-153.127 305.059L-153.834 305.765ZM-155.956 306.471L-156.663 305.763L-157.37 306.47L-156.664 307.178L-155.956 306.471ZM-155.249 307.179L-154.542 306.472L-154.542 306.472L-155.249 307.179ZM368.717 831.852L368.009 832.559L368.717 831.852ZM369.423 832.559L368.716 833.266L369.422 833.974L370.13 833.267L369.423 832.559ZM370.839 831.146L371.545 831.854L372.253 831.147L371.546 830.44L370.839 831.146ZM370.132 830.439L369.424 831.145L370.132 830.439ZM-170.805 322.736L-170.097 322.029L-170.097 322.029L-170.805 322.736ZM-171.511 322.028L-170.804 321.322L-171.51 320.614L-172.218 321.321L-171.511 322.028ZM353.161 847.409L352.454 848.116L353.161 847.409ZM353.868 848.117L354.575 848.824L355.282 848.118L354.576 847.41L353.868 848.117ZM352.453 849.53L351.745 850.237L352.452 850.944L353.16 850.238L352.453 849.53ZM351.746 848.822L351.039 849.529L351.746 848.822ZM-172.22 324.149L-171.512 323.443L-171.512 323.443L-172.22 324.149ZM-172.927 323.442L-173.633 322.734L-174.341 323.441L-173.634 324.148L-172.927 323.442ZM-188.482 338.999L-187.774 338.292L-188.481 337.585L-189.189 338.291L-188.482 338.999ZM-187.775 339.707L-187.068 339L-187.068 339L-187.775 339.707ZM-189.897 340.412L-190.604 339.705L-191.311 340.411L-190.605 341.119L-189.897 340.412ZM-189.19 341.12L-188.483 340.413L-188.483 340.413L-189.19 341.12ZM334.776 865.793L334.068 866.5L334.776 865.793ZM335.482 866.501L334.775 867.207L335.481 867.915L336.189 867.208L335.482 866.501ZM336.897 865.087L337.604 865.795L338.312 865.088L337.605 864.381L336.897 865.087ZM336.191 864.38L335.483 865.086L336.191 864.38ZM99.3101 51.206L100.017 51.9136L101.432 50.5003L100.725 49.7928L99.3101 51.206ZM99.3091 52.6202L100.724 51.207L99.311 49.7918L97.8959 51.2051L99.3091 52.6202ZM100.017 51.9136L99.3101 51.206L97.8949 52.6193L98.6015 53.3269L100.017 51.9136ZM623.983 576.587L100.017 51.9136L98.6015 53.3269L622.568 578L623.983 576.587ZM624.689 577.294L623.983 576.587L622.568 578L623.274 578.708L624.689 577.294ZM624.69 575.88L623.275 577.293L624.689 578.709L626.104 577.295L624.69 575.88ZM623.983 576.587L624.689 577.294L626.105 575.881L625.398 575.174L623.983 576.587ZM100.017 51.9136L623.983 576.587L625.398 575.174L101.432 50.5003L100.017 51.9136ZM82.3395 68.1766L83.0461 68.8842L84.4613 67.4709L83.7547 66.7633L82.3395 68.1766ZM82.3386 69.5908L83.7537 68.1775L82.3405 66.7624L80.9253 68.1756L82.3386 69.5908ZM83.0461 68.8842L82.3395 68.1766L80.9243 69.5898L81.631 70.2974L83.0461 68.8842ZM607.012 593.557L83.0461 68.8842L81.631 70.2974L605.597 594.971L607.012 593.557ZM607.719 594.265L607.012 593.557L605.597 594.971L606.304 595.678L607.719 594.265ZM607.72 592.851L606.305 594.264L607.718 595.679L609.133 594.266L607.72 592.851ZM607.012 593.557L607.719 594.265L609.134 592.852L608.427 592.144L607.012 593.557ZM83.0461 68.8842L607.012 593.557L608.427 592.144L84.4613 67.4709L83.0461 68.8842ZM67.4907 84.4415L66.7841 83.7339L65.369 85.1471L66.0756 85.8547L67.4907 84.4415ZM591.457 609.115L67.4907 84.4415L66.0756 85.8547L590.042 610.528L591.457 609.115ZM592.163 609.822L591.457 609.115L590.042 610.528L590.748 611.236L592.163 609.822ZM590.747 612.65L592.163 611.236L590.749 609.821L589.334 611.235L590.747 612.65ZM588.627 611.941L589.333 612.649L590.748 611.236L590.042 610.528L588.627 611.941ZM64.6604 87.268L588.627 611.941L590.042 610.528L66.0756 85.8547L64.6604 87.268ZM63.9538 86.5604L64.6604 87.268L66.0756 85.8547L65.369 85.1471L63.9538 86.5604ZM65.3699 83.7329L63.9547 85.1462L65.368 86.5613L66.7832 85.1481L65.3699 83.7329ZM48.3984 102.118L49.105 102.825L50.5202 101.412L49.8136 100.704L48.3984 102.118ZM48.3974 103.532L49.8126 102.119L48.3993 100.703L46.9842 102.117L48.3974 103.532ZM49.105 102.825L48.3984 102.118L46.9832 103.531L47.6899 104.239L49.105 102.825ZM573.071 627.499L49.105 102.825L47.6899 104.239L571.656 628.912L573.071 627.499ZM573.778 628.206L573.071 627.499L571.656 628.912L572.363 629.619L573.778 628.206ZM573.779 626.792L572.364 628.205L573.777 629.62L575.192 628.207L573.779 626.792ZM573.071 627.499L573.778 628.206L575.193 626.793L574.486 626.085L573.071 627.499ZM49.105 102.825L573.071 627.499L574.486 626.085L50.5202 101.412L49.105 102.825ZM33.5496 118.383L32.843 117.675L31.4278 119.088L32.1345 119.796L33.5496 118.383ZM557.516 643.056L33.5496 118.383L32.1345 119.796L556.101 644.469L557.516 643.056ZM558.222 643.763L557.516 643.056L556.101 644.469L556.807 645.177L558.222 643.763ZM556.806 646.591L558.221 645.178L556.808 643.762L555.393 645.176L556.806 646.591ZM554.685 645.882L555.392 646.59L556.807 645.177L556.101 644.469L554.685 645.882ZM30.7193 121.209L554.685 645.882L556.101 644.469L32.1345 119.796L30.7193 121.209ZM30.0127 120.502L30.7193 121.209L32.1345 119.796L31.4278 119.088L30.0127 120.502ZM31.4288 117.674L30.0136 119.087L31.4269 120.502L32.842 119.089L31.4288 117.674ZM14.4573 136.059L15.1639 136.766L16.5791 135.353L15.8724 134.646L14.4573 136.059ZM14.4563 137.473L15.8715 136.06L14.4582 134.645L13.043 136.058L14.4563 137.473ZM15.1639 136.766L14.4573 136.059L13.0421 137.472L13.7487 138.18L15.1639 136.766ZM539.13 661.44L15.1639 136.766L13.7487 138.18L537.715 662.853L539.13 661.44ZM539.837 662.147L539.13 661.44L537.715 662.853L538.421 663.56L539.837 662.147ZM539.838 660.733L538.422 662.146L539.836 663.561L541.251 662.148L539.838 660.733ZM539.13 661.44L539.837 662.147L541.252 660.734L540.545 660.026L539.13 661.44ZM15.1639 136.766L539.13 661.44L540.545 660.026L16.5791 135.353L15.1639 136.766ZM-0.391505 152.324L-1.09814 151.616L-2.5133 153.029L-1.80667 153.737L-0.391505 152.324ZM523.575 676.997L-0.391503 152.324L-1.80667 153.737L522.159 678.41L523.575 676.997ZM524.281 677.705L523.575 676.997L522.159 678.41L522.866 679.118L524.281 677.705ZM522.865 680.532L524.28 679.119L522.867 677.704L521.452 679.117L522.865 680.532ZM520.744 679.823L521.451 680.531L522.866 679.118L522.159 678.41L520.744 679.823ZM-3.22184 155.15L520.744 679.823L522.159 678.41L-1.80667 153.737L-3.22184 155.15ZM-3.92847 154.443L-3.22184 155.15L-1.80667 153.737L-2.5133 153.029L-3.92847 154.443ZM-2.51235 151.615L-3.92752 153.028L-2.51425 154.444L-1.09909 153.03L-2.51235 151.615ZM-19.4839 170L-18.7772 170.708L-17.3621 169.294L-18.0687 168.587L-19.4839 170ZM-19.4848 171.414L-18.0696 170.001L-19.4829 168.586L-20.8981 169.999L-19.4848 171.414ZM-18.7772 170.708L-19.4839 170L-20.899 171.413L-20.1924 172.121L-18.7772 170.708ZM505.189 695.381L-18.7772 170.708L-20.1924 172.121L503.774 696.794L505.189 695.381ZM505.896 696.088L505.189 695.381L503.774 696.794L504.48 697.502L505.896 696.088ZM505.896 694.674L504.481 696.087L505.895 697.503L507.31 696.089L505.896 694.674ZM505.189 695.381L505.896 696.088L507.311 694.675L506.604 693.967L505.189 695.381ZM-18.7772 170.708L505.189 695.381L506.604 693.967L-17.3621 169.294L-18.7772 170.708ZM-34.3326 186.265L-35.0393 185.557L-36.4544 186.971L-35.7478 187.678L-34.3326 186.265ZM489.633 710.938L-34.3326 186.265L-35.7478 187.678L488.218 712.351L489.633 710.938ZM490.34 711.646L489.633 710.938L488.218 712.351L488.925 713.059L490.34 711.646ZM488.924 714.473L490.339 713.06L488.926 711.645L487.511 713.058L488.924 714.473ZM486.803 713.765L487.51 714.472L488.925 713.059L488.218 712.351L486.803 713.765ZM-37.163 189.091L486.803 713.765L488.218 712.351L-35.7478 187.678L-37.163 189.091ZM-37.8696 188.384L-37.163 189.091L-35.7478 187.678L-36.4544 186.971L-37.8696 188.384ZM-36.4535 185.556L-37.8686 186.97L-36.4554 188.385L-35.0402 186.971L-36.4535 185.556ZM-53.425 203.941L-52.7184 204.649L-51.3032 203.235L-52.0098 202.528L-53.425 203.941ZM-53.4259 205.355L-52.0108 203.942L-53.424 202.527L-54.8392 203.94L-53.4259 205.355ZM-52.7184 204.649L-53.425 203.941L-54.8402 205.354L-54.1335 206.062L-52.7184 204.649ZM471.248 729.322L-52.7184 204.649L-54.1335 206.062L469.833 730.735L471.248 729.322ZM471.954 730.029L471.248 729.322L469.833 730.735L470.539 731.443L471.954 730.029ZM471.955 728.615L470.54 730.029L471.953 731.444L473.369 730.03L471.955 728.615ZM471.248 729.322L471.954 730.029L473.37 728.616L472.663 727.909L471.248 729.322ZM-52.7184 204.649L471.248 729.322L472.663 727.909L-51.3032 203.235L-52.7184 204.649ZM-68.2738 220.206L-68.9804 219.498L-70.3955 220.912L-69.6889 221.619L-68.2738 220.206ZM455.692 744.879L-68.2738 220.206L-69.6889 221.619L454.277 746.292L455.692 744.879ZM456.399 745.587L455.692 744.879L454.277 746.292L454.984 747L456.399 745.587ZM454.983 748.414L456.398 747.001L454.985 745.586L453.57 746.999L454.983 748.414ZM452.862 747.706L453.569 748.413L454.984 747L454.277 746.292L452.862 747.706ZM-71.1041 223.032L452.862 747.706L454.277 746.292L-69.6889 221.619L-71.1041 223.032ZM-71.8107 222.325L-71.1041 223.032L-69.6889 221.619L-70.3956 220.912L-71.8107 222.325ZM-70.3946 219.497L-71.8098 220.911L-70.3965 222.326L-68.9813 220.913L-70.3946 219.497ZM-87.3661 237.882L-86.6595 238.59L-85.2443 237.177L-85.9509 236.469L-87.3661 237.882ZM-87.3671 239.296L-85.9519 237.883L-87.3652 236.468L-88.7803 237.881L-87.3671 239.296ZM-86.6595 238.59L-87.3661 237.882L-88.7813 239.295L-88.0746 240.003L-86.6595 238.59ZM437.307 763.263L-86.6595 238.59L-88.0746 240.003L435.891 764.676L437.307 763.263ZM438.013 763.971L437.307 763.263L435.891 764.676L436.598 765.384L438.013 763.971ZM438.014 762.556L436.599 763.97L438.012 765.385L439.427 763.972L438.014 762.556ZM437.307 763.263L438.013 763.971L439.428 762.557L438.722 761.85L437.307 763.263ZM-86.6595 238.59L437.307 763.263L438.722 761.85L-85.2443 237.177L-86.6595 238.59ZM-102.215 254.147L-102.922 253.439L-104.337 254.853L-103.63 255.56L-102.215 254.147ZM421.751 778.82L-102.215 254.147L-103.63 255.56L420.336 780.234L421.751 778.82ZM422.458 779.528L421.751 778.82L420.336 780.234L421.043 780.941L422.458 779.528ZM421.042 782.355L422.457 780.942L421.044 779.527L419.628 780.94L421.042 782.355ZM418.921 781.647L419.628 782.354L421.043 780.941L420.336 780.234L418.921 781.647ZM-105.045 256.974L418.921 781.647L420.336 780.234L-103.63 255.56L-105.045 256.974ZM-105.752 256.266L-105.045 256.974L-103.63 255.56L-104.337 254.853L-105.752 256.266ZM-104.336 253.439L-105.751 254.852L-104.338 256.267L-102.922 254.854L-104.336 253.439ZM-121.307 271.823L-120.601 272.531L-119.185 271.118L-119.892 270.41L-121.307 271.823ZM-121.308 273.238L-119.893 271.824L-121.306 270.409L-122.721 271.822L-121.308 273.238ZM-120.601 272.531L-121.307 271.823L-122.722 273.237L-122.016 273.944L-120.601 272.531ZM403.366 797.204L-120.601 272.531L-122.016 273.944L401.95 798.617L403.366 797.204ZM404.072 797.912L403.366 797.204L401.95 798.617L402.657 799.325L404.072 797.912ZM404.073 796.497L402.658 797.911L404.071 799.326L405.486 797.913L404.073 796.497ZM403.366 797.204L404.072 797.912L405.487 796.498L404.781 795.791L403.366 797.204ZM-120.601 272.531L403.366 797.204L404.781 795.791L-119.185 271.118L-120.601 272.531ZM-136.156 288.088L-136.863 287.381L-138.278 288.794L-137.571 289.501L-136.156 288.088ZM387.81 812.761L-136.156 288.088L-137.571 289.501L386.395 814.175L387.81 812.761ZM388.517 813.469L387.81 812.761L386.395 814.175L387.102 814.882L388.517 813.469ZM387.101 816.296L388.516 814.883L387.103 813.468L385.687 814.881L387.101 816.296ZM384.98 815.588L385.686 816.296L387.102 814.882L386.395 814.175L384.98 815.588ZM-138.986 290.915L384.98 815.588L386.395 814.175L-137.571 289.501L-138.986 290.915ZM-139.693 290.207L-138.986 290.915L-137.571 289.501L-138.278 288.794L-139.693 290.207ZM-138.277 287.38L-139.692 288.793L-138.279 290.208L-136.864 288.795L-138.277 287.38ZM-155.248 305.764L-154.542 306.472L-153.127 305.059L-153.833 304.351L-155.248 305.764ZM-155.249 307.179L-153.834 305.765L-155.247 304.35L-156.663 305.763L-155.249 307.179ZM-154.542 306.472L-155.248 305.764L-156.664 307.178L-155.957 307.885L-154.542 306.472ZM369.424 831.145L-154.542 306.472L-155.957 307.885L368.009 832.559L369.424 831.145ZM370.131 831.853L369.424 831.145L368.009 832.559L368.716 833.266L370.131 831.853ZM370.132 830.439L368.717 831.852L370.13 833.267L371.545 831.854L370.132 830.439ZM369.424 831.145L370.131 831.853L371.546 830.44L370.84 829.732L369.424 831.145ZM-154.542 306.472L369.424 831.145L370.84 829.732L-153.127 305.059L-154.542 306.472ZM-170.097 322.029L-170.804 321.322L-172.219 322.735L-171.512 323.443L-170.097 322.029ZM353.869 846.703L-170.097 322.029L-171.512 323.443L352.454 848.116L353.869 846.703ZM354.576 847.41L353.869 846.703L352.454 848.116L353.16 848.823L354.576 847.41ZM353.16 850.238L354.575 848.824L353.161 847.409L351.746 848.822L353.16 850.238ZM351.039 849.529L351.745 850.237L353.16 848.823L352.454 848.116L351.039 849.529ZM-172.927 324.856L351.039 849.529L352.454 848.116L-171.512 323.443L-172.927 324.856ZM-173.634 324.148L-172.927 324.856L-171.512 323.443L-172.219 322.735L-173.634 324.148ZM-172.218 321.321L-173.633 322.734L-172.22 324.149L-170.805 322.736L-172.218 321.321ZM-189.189 339.706L-188.483 340.413L-187.068 339L-187.774 338.292L-189.189 339.706ZM-189.19 341.12L-187.775 339.707L-189.189 338.291L-190.604 339.705L-189.19 341.12ZM-188.483 340.413L-189.189 339.706L-190.605 341.119L-189.898 341.826L-188.483 340.413ZM335.483 865.086L-188.483 340.413L-189.898 341.826L334.068 866.5L335.483 865.086ZM336.19 865.794L335.483 865.086L334.068 866.5L334.775 867.207L336.19 865.794ZM336.191 864.38L334.776 865.793L336.189 867.208L337.604 865.795L336.191 864.38ZM335.483 865.086L336.19 865.794L337.605 864.381L336.898 863.673L335.483 865.086ZM-188.483 340.413L335.483 865.086L336.898 863.673L-187.068 339L-188.483 340.413Z" fill="black"/>
</g>
<path d="M377.53 144.688L378.47 142.923C406.321 157.756 422.513 165.398 440.366 171.323C462.734 178.748 484.041 181.606 506.771 179.583C553.218 175.449 586.565 143.862 594.985 97.3929C595.047 97.05 595.125 96.6184 595.266 95.8433C596.463 89.2401 597.044 85.8462 597.607 81.9405C600.571 61.3573 599.08 46.9869 590.722 34.0353C579.082 15.9974 552.809 1.45133 531.996 2.01611C518.543 2.38118 510.164 3.17363 501.678 4.83448C495.37 6.06898 466.271 13.7085 460.605 15.0971C435.432 21.2671 421.464 38.1115 426.005 61.4584C428.027 71.8569 431.748 79.8548 437.764 83.7639C443.647 87.5867 452.476 90.6274 458.979 90.6962C464.823 90.7581 469.915 91.043 479.033 91.7191C499.936 93.2689 507.045 93.2551 515.063 90.6288C525.311 87.2722 531.622 79.38 534.606 64.6692L536.566 65.0668C533.446 80.4473 526.659 88.9352 515.686 92.5294C507.313 95.2719 500.091 95.286 478.885 93.7136C469.807 93.0405 464.748 92.7574 458.958 92.6961C452.046 92.6229 442.856 89.4583 436.674 85.4409C430.081 81.1568 426.159 72.7255 424.042 61.8402C419.274 37.3257 434.008 19.5568 460.129 13.1546C465.736 11.7803 494.912 4.12057 501.294 2.87172C509.901 1.18721 518.386 0.384707 531.942 0.0168469C553.469 -0.567322 580.392 14.3385 592.403 32.9508C601.076 46.3903 602.613 61.2099 599.586 82.2256C599.019 86.1626 598.435 89.5738 597.234 96.2C597.093 96.9754 597.015 97.4068 596.953 97.7495C588.375 145.09 554.307 177.36 506.948 181.575C483.933 183.623 462.354 180.729 439.736 173.222C421.746 167.25 405.475 159.572 377.53 144.688Z" fill="black"/>
<circle cx="144" cy="144" r="114" fill="#D58E5E"/>
<rect x="362" y="421" width="238" height="240" rx="24" fill="#FFB200"/>
<rect x="80" y="126" width="433" height="449" rx="24" fill="#D8D8D8"/>
<mask id="mask1_0_205" style="mask-type:luminance" maskUnits="userSpaceOnUse" x="80" y="126" width="433" height="449">
<rect x="80" y="126" width="433" height="449" rx="24" fill="white"/>
</mask>
<g mask="url(#mask1_0_205)">
</g>
</svg>
